<svg width="15" height="14" viewBox="0 0 15 14" fill="none" xmlns="http://www.w3.org/2000/svg">
<path d="M0.932188 12.0468C0.528185 12.4282 0.509875 13.0649 0.891291 13.4689C1.27271 13.8729 1.90941 13.8912 2.31342 13.5098L0.932188 12.0468ZM14.7301 1.38208C14.7461 0.826704 14.3088 0.363537 13.7535 0.347565L4.70311 0.0872958C4.14773 0.0713243 3.68457 0.508597 3.6686 1.06397C3.65262 1.61935 4.0899 2.08251 4.64527 2.09849L12.69 2.32984L12.4587 10.3746C12.4427 10.93 12.88 11.3931 13.4354 11.4091C13.9907 11.4251 14.4539 10.9878 14.4699 10.4324L14.7301 1.38208ZM2.31342 13.5098L14.4152 2.08467L13.0339 0.621649L0.932188 12.0468L2.31342 13.5098Z" fill="white"/>
</svg>
