<svg width="58" height="58" viewBox="0 0 58 58" fill="none" xmlns="http://www.w3.org/2000/svg">
<path d="M49.0918 28.7976C49.2301 39.9898 39.9289 49.5985 28.1372 49.3986C17.2217 49.2141 7.93591 40.2973 7.93591 28.7669C7.93591 17.6823 17.0834 7.8738 29.321 8.27353C40.0827 8.62712 49.1994 17.5901 49.0918 28.7976ZM38.5914 25.1694C38.6222 22.11 35.8856 19.6194 33.1337 20.096C31.1966 20.4189 29.7976 21.4797 29.1057 23.3553C28.4293 25.2155 28.952 26.8298 30.1819 28.2596C30.5662 28.7054 30.5816 28.9821 30.1819 29.4126C28.8751 30.8577 28.46 32.5027 29.1365 34.3784C29.8129 36.254 32.0268 37.8221 33.9024 37.6069C35.8702 37.3916 37.3922 36.4385 38.1763 34.5475C38.9604 32.6565 38.6068 30.9192 37.2539 29.4126C36.8695 28.9821 36.8388 28.69 37.2231 28.2442C38.0841 27.3371 38.6068 26.2763 38.5914 25.1694ZM23.0638 27.8445C23.0638 25.5076 23.0638 23.1862 23.0638 20.8493C23.0638 20.465 23.0945 20.0345 22.5257 20.0345C21.3419 20.0345 20.1735 20.0345 18.9897 20.0345C18.7745 20.0345 18.6054 20.1114 18.5131 20.342C18.1288 21.3567 18.5746 22.0024 19.6508 22.0024C19.6969 22.0024 19.7584 22.0024 19.8045 22.0024C21.0498 22.0024 21.0652 22.0178 21.0652 23.2323C21.0652 26.7375 21.0652 30.2582 21.0652 33.7634C21.0652 35.885 21.1728 35.5775 19.3279 35.5468C18.5285 35.5314 18.4516 35.9157 18.467 36.5461C18.4824 37.1303 18.4209 37.6684 19.3126 37.653C21.0806 37.6069 22.8486 37.6376 24.6166 37.6376C25.6312 37.6376 25.6466 37.6069 25.662 36.6076C25.662 35.5775 25.662 35.5775 24.6473 35.5775C24.4474 35.5775 24.2322 35.5621 24.0324 35.5775C23.2944 35.6698 23.0484 35.3315 23.0638 34.609C23.0792 32.349 23.0638 30.1044 23.0638 27.8445Z" fill="#021443"/>
<path d="M28.6907 57.2547C16.8067 57.3931 5.86051 49.8292 1.77106 38.5601C0.618021 35.4085 0.0030667 32.18 0.0338144 28.8592C0.0953099 21.4644 2.5705 14.9612 7.62851 9.51888C12.6711 4.07653 18.9283 1.07863 26.3231 0.432927C30.8584 0.0332065 35.1938 0.8019 39.3909 2.49303C39.7445 2.63139 40.3595 2.69289 40.2826 3.16948C40.175 3.83055 39.8829 4.507 39.3909 4.99897C39.1911 5.19883 38.9143 4.95284 38.6837 4.8606C35.2092 3.43083 31.581 2.69289 27.8144 2.81588C21.7725 3.03111 16.3762 5.04509 11.7641 8.96542C6.6292 13.3316 3.53906 18.8969 2.72424 25.5692C1.83256 32.8718 3.72354 39.4979 8.41257 45.2324C12.1177 49.7677 16.8221 52.7809 22.5412 54.0724C29.8745 55.7327 36.7466 54.5336 43.0191 50.3365C47.7697 47.1695 51.1366 42.8494 53.0275 37.4686C55.1953 31.3037 55.0415 25.1541 52.6432 19.0661C52.4895 18.6817 52.0436 18.2205 52.3818 17.8669C52.843 17.3596 53.5656 17.1597 54.2267 16.9906C54.4881 16.9291 54.5803 17.2366 54.6725 17.4518C55.8563 20.2037 56.625 23.0633 56.9017 26.0458C57.3783 31.2422 56.5635 36.2233 54.3036 40.9123C50.8906 48.015 45.4482 52.9193 38.0534 55.6251C34.9786 56.7628 31.827 57.3316 28.6907 57.2547Z" fill="#021443"/>
<path d="M52.4588 9.57999C52.4588 10.8099 52.4588 10.8099 51.2288 10.8099C50.7215 10.8099 50.1988 10.8253 49.6915 10.8099C49.2302 10.7945 49.0458 11.0098 49.0458 11.4556C49.0611 12.1474 49.0458 12.8392 49.0458 13.5311C49.0458 13.9615 48.8613 14.1921 48.4001 14.1921C46.2631 14.1921 46.5859 14.3305 46.5706 12.4856C46.5398 10.5793 46.8012 10.8253 44.8948 10.7945C42.9885 10.7638 43.1729 11.1327 43.1729 8.91891C43.1729 8.45769 43.3882 8.27321 43.834 8.27321C44.4951 8.27321 45.1715 8.24246 45.8326 8.27321C46.4168 8.30395 46.6167 8.05797 46.5859 7.50451C46.5552 6.88956 46.6013 6.2746 46.5706 5.65965C46.5552 5.09082 46.8012 4.90633 47.3546 4.89096C49.0611 4.84483 49.0458 4.82946 49.0611 6.52059C49.0765 8.51919 48.8459 8.24246 50.8291 8.27321C50.9521 8.27321 51.0905 8.27321 51.2135 8.27321C52.4588 8.30395 52.4588 8.30395 52.4588 9.57999Z" fill="#021443"/>
<path d="M33.7795 22.1251C35.3169 22.1405 36.5621 23.3858 36.5621 24.9078C36.5775 26.4452 35.2707 27.7212 33.718 27.7212C32.1345 27.7212 30.8738 26.4606 30.8892 24.8924C30.9199 23.3397 32.196 22.1098 33.7795 22.1251Z" fill="#021443"/>
<path d="M30.8892 32.7334C30.8738 31.2422 32.2113 29.8739 33.718 29.8585C35.1939 29.8432 36.516 31.1346 36.5621 32.6258C36.6083 34.1325 35.2861 35.5007 33.7641 35.5161C32.2113 35.5469 30.9199 34.2862 30.8892 32.7334Z" fill="#021443"/>
</svg>
