<svg width="37" height="37" viewBox="0 0 37 37" fill="none" xmlns="http://www.w3.org/2000/svg">
<g clip-path="url(#clip0_32_1458)">
<path d="M18.8567 36.4258C28.7978 36.4258 36.8567 28.3669 36.8567 18.4258C36.8567 8.48466 28.7978 0.425781 18.8567 0.425781C8.91556 0.425781 0.856689 8.48466 0.856689 18.4258C0.856689 28.3669 8.91556 36.4258 18.8567 36.4258Z" fill="#3B5998"/>
<path d="M23.3818 19.1303H20.1699V30.8971H15.3037V19.1303H12.9893V14.995H15.3037V12.3189C15.3037 10.4053 16.2127 7.40869 20.2133 7.40869L23.8179 7.42377V11.4378H21.2025C20.7735 11.4378 20.1703 11.6522 20.1703 12.565V14.9988H23.807L23.3818 19.1303Z" fill="white"/>
</g>
<defs>
<clipPath id="clip0_32_1458">
<rect width="36" height="36" fill="white" transform="translate(0.856689 0.425781)"/>
</clipPath>
</defs>
</svg>
