<svg width="52" height="58" viewBox="0 0 52 58" fill="none" xmlns="http://www.w3.org/2000/svg">
<path d="M4.22926 27.1272C4.31844 24.7065 4.1783 22.0947 4.34392 19.4829C4.57325 15.8518 5.92375 12.6667 8.24254 9.92745C11.8099 5.71032 16.4347 3.60813 21.9386 3.88842C27.8503 4.19419 32.4241 6.98438 35.5711 12.0296C37.342 14.858 38.1064 17.9795 38.0555 21.3048C38.03 22.8719 38.0555 24.4517 38.0555 26.0188C38.0555 26.7195 38.3103 27.2928 38.9091 27.7005C39.8391 28.3121 41.1387 27.7642 41.1387 26.6558C41.1642 23.1139 41.4699 19.5466 40.438 16.0939C39.355 12.4373 37.4057 9.34138 34.4881 6.86971C31.4304 4.27064 27.8885 2.79273 23.9134 2.44874C18.9319 1.99007 14.1796 2.81821 10.0135 5.82499C5.78361 8.86998 3.24823 13.0234 2.30543 18.1324C2.15255 18.935 2.16529 19.7759 2.10158 20.604C2.0761 20.8843 2.0761 21.1646 2.0124 21.4194C1.88499 21.9928 1.43907 22.324 0.90397 22.2348C0.343385 22.1457 0.0503517 21.7762 0.0376111 21.2156C-0.000610579 19.8141 0.177757 18.4254 0.45805 17.0494C1.38811 12.6412 3.4903 8.86998 6.82833 5.83773C10.1154 2.83095 13.963 0.98357 18.435 0.524909C21.0341 0.257358 23.6586 0.231876 26.2322 0.703277C29.876 1.37853 33.1249 2.94562 35.9278 5.37907C39.8137 8.75532 42.1579 13.0107 42.9606 18.0814C43.3683 20.6295 43.139 23.2031 43.1772 25.7767C43.1899 26.2226 43.2027 26.6813 43.1135 27.1145C42.8459 28.5796 41.9159 29.5097 40.5144 29.8664C38.9855 30.2741 37.7752 29.6116 36.8196 28.4395C36.2081 27.6878 35.9915 26.7832 35.9788 25.8277C35.9788 24.0822 35.9915 22.3495 35.9788 20.604C35.9405 16.5143 34.4371 13.0616 31.5578 10.1695C28.8313 7.4303 25.506 6.0161 21.7093 5.86321C17.7597 5.69758 14.2306 6.99712 11.2748 9.67264C8.11513 12.5393 6.45886 16.1194 6.30597 20.3875C6.15308 24.9231 6.07664 29.4842 6.26775 34.0071C6.48434 39.3709 8.96875 43.6517 13.4025 46.7477C16.2818 48.7607 19.4925 49.6271 22.9961 49.6143C25.2639 49.6016 27.4935 49.4742 29.6467 48.7097C29.927 48.6078 30.2073 48.5441 30.2073 48.1492C30.22 47.4484 30.0544 47.2955 29.4046 47.5376C27.6209 48.1874 25.799 48.3657 23.9134 48.404C21.1105 48.4677 18.5369 47.8689 16.1035 46.5056C14.0777 45.3717 12.4469 43.8301 11.1474 41.919C9.52933 39.5238 8.71394 36.8483 8.65023 33.9562C8.63749 33.1153 9.09615 32.6439 9.80963 32.7458C10.3575 32.8223 10.625 33.179 10.6378 33.9179C10.6887 36.1348 11.2366 38.2115 12.3832 40.0971C14.7657 44.0467 18.2821 46.1489 22.8942 46.3782C25.3276 46.5056 27.6846 46.2253 29.9015 45.1296C30.271 44.9513 30.4876 44.7092 30.615 44.3142C31.5068 41.6769 33.1249 39.613 35.6093 38.3007C36.1444 38.0204 36.4501 37.6382 36.5903 37.0649C36.7941 36.2112 36.947 35.3576 36.9853 34.4913C36.998 34.1982 36.998 33.8925 37.049 33.5994C37.1636 33.0134 37.5713 32.7076 38.1319 32.7458C38.6925 32.784 39.0365 33.1408 39.0492 33.7651C39.0875 34.7206 38.96 35.6761 38.7435 36.6062C38.6415 37.0266 38.6798 37.1795 39.1766 37.1158C40.8329 36.8865 40.5908 37.2177 40.9348 35.485C41.0622 34.8225 41.1514 34.1473 41.1514 33.4593C41.1642 32.5674 41.5082 32.096 42.1452 32.0833C42.7822 32.0706 43.139 32.5547 43.139 33.4338C43.139 34.4785 43.0115 35.5105 42.795 36.5298C42.693 37.0139 42.7822 37.2432 43.2918 37.4089C47.6618 38.7211 50.2991 41.6769 50.9234 46.1744C51.4585 50.022 50.0061 53.2326 46.9611 55.6406C42.2853 59.3481 35.0359 58.3161 31.6342 52.8377C31.2902 52.2771 31.0227 51.6783 30.7806 51.0667C30.615 50.659 30.4493 50.5826 30.0289 50.71C26.0156 51.9458 21.9386 52.086 17.8999 51.0413C13.326 49.8564 9.73318 47.1936 7.13411 43.2058C5.05739 40.0334 4.12733 36.5552 4.19104 32.7713C4.25474 30.9621 4.22926 29.1275 4.22926 27.1272ZM48.9996 47.4229C49.178 42.9892 45.2539 39.0014 40.5781 39.0396C35.9278 39.0779 32.1948 42.7726 32.1821 47.4102C32.1693 52.0732 35.915 55.8062 40.5908 55.819C45.3176 55.8445 49.1652 51.8694 48.9996 47.4229Z" fill="white"/>
<path d="M33.0739 26.63C33.0739 24.9483 33.0994 23.2793 33.0739 21.5975C32.9975 16.6542 30.7296 13.0486 26.2704 10.9082C21.5692 8.6531 15.4792 10.2966 12.4087 14.5138C10.7906 16.7306 10.0772 19.2023 10.0517 21.9033C10.039 23.9418 10.0517 25.9803 10.0517 28.0188C10.0517 28.2353 10.0517 28.4392 10.039 28.6558C9.98799 29.2291 9.58029 29.6241 9.05793 29.6241C8.53556 29.6241 8.10238 29.2419 8.0769 28.6558C8.03868 27.8914 8.05142 27.1269 8.06416 26.3625C8.11512 24.2221 7.91128 22.0689 8.16609 19.9412C8.72667 15.3164 11.1219 11.8765 15.1352 9.57042C20.0785 6.74201 26.4998 7.4937 30.6532 11.3541C33.5963 14.0933 35.0996 17.5205 35.1379 21.5465C35.1633 25.0884 35.1506 28.643 35.1379 32.1849C35.1124 37.778 30.8316 42.6832 25.2767 43.3457C20.0021 43.9699 15.5047 41.7149 13.1859 37.0518C12.4724 35.6249 12.0392 34.0833 12.0392 32.4525C12.0392 28.987 12.0265 25.5343 12.0392 22.0689C12.052 16.6797 16.9826 12.3351 22.3463 12.9721C27.5955 13.5964 31.0736 17.5333 31.0736 22.8206C31.0736 26.0949 31.0736 29.3565 31.0736 32.6308C31.0736 36.5932 27.8248 39.8547 23.8752 39.9057C20.0403 39.9439 16.6258 36.5804 16.6258 32.7455C16.6258 29.1527 16.6258 25.5726 16.6258 21.9797C16.6258 19.6227 18.091 17.6734 20.3078 17.0491C22.4865 16.4503 24.7288 17.3804 25.9392 19.3807C26.4615 20.247 26.5762 21.228 26.5762 22.2091C26.6017 25.5471 26.6144 28.8724 26.5762 32.2104C26.5635 33.6246 26.0666 34.8604 24.7288 35.5357C22.8177 36.504 20.6391 35.2809 20.6009 33.1405C20.5244 29.5604 20.5754 25.9675 20.5881 22.3747C20.5881 21.7377 21.0468 21.2917 21.6201 21.3045C22.1807 21.3045 22.6011 21.7122 22.6139 22.4002C22.6521 23.9545 22.6394 25.4961 22.6394 27.0505C22.6394 28.987 22.6394 30.9109 22.6394 32.8474C22.6394 33.2424 22.6649 33.6373 23.1363 33.7775C23.6331 33.9176 23.9899 33.7265 24.2574 33.2934C24.4868 32.9239 24.5505 32.5544 24.5505 32.1467C24.5505 30.0063 24.5505 27.8531 24.5377 25.7127C24.5377 24.3495 24.5632 22.999 24.5122 21.6357C24.4613 20.2598 23.3528 19.1004 22.0533 18.9475C20.5117 18.7691 19.2249 19.5845 18.7917 20.9987C18.6898 21.3554 18.6898 21.7122 18.6898 22.0689C18.6898 25.5981 18.6898 29.1144 18.6898 32.6436C18.6898 35.5994 21.0086 37.9054 23.8879 37.8545C26.8565 37.8035 29.0861 35.421 29.0351 32.427C28.9969 30.3503 29.0861 28.2736 29.0606 26.1969C29.0351 24.4132 29.2008 22.6168 28.8185 20.8713C27.9649 16.9599 24.3339 14.4883 20.3461 15.0361C16.715 15.5457 14.0777 18.578 14.0905 22.2473C14.1032 25.649 14.1032 29.038 14.0905 32.4397C14.0777 37.3703 18.6261 41.6129 23.3146 41.3709C24.7416 41.2944 26.1303 41.2562 27.4808 40.6829C30.7296 39.2942 33.0484 35.9179 33.0739 32.3888C33.0739 30.4522 33.0739 28.5411 33.0739 26.63Z" fill="white"/>
<path d="M2.11435 30.402C2.11435 32.2876 2.08887 34.1732 2.33094 36.0588C2.6622 38.6197 3.47759 41.0149 4.67521 43.2827C6.67548 47.0285 9.52936 49.9588 13.2369 52.0482C16.2691 53.7555 19.5435 54.6346 23.0089 54.8002C23.3019 54.8129 23.6077 54.8002 23.9007 54.8512C24.4486 54.9658 24.7671 55.3098 24.7671 55.8704C24.7671 56.38 24.3212 56.7622 23.7351 56.775C21.3526 56.8259 19.0338 56.4947 16.7787 55.743C9.38922 53.2713 4.29299 48.4172 1.54103 41.1168C0.458079 38.2884 0.0376405 35.3453 0.0631217 32.3386C0.0758622 30.6186 0.0631217 28.8986 0.0631217 27.1786C0.0631217 26.9621 0.0503811 26.7582 0.0758622 26.5416C0.152306 25.9301 0.521782 25.5479 1.04415 25.5479C1.64295 25.5479 2.08887 25.9428 2.10161 26.5798C2.12709 27.4972 2.11435 28.4017 2.11435 29.3191C2.11435 29.6885 2.11435 30.0453 2.11435 30.402Z" fill="white"/>
<path d="M40.5908 40.8105C44.2983 40.8105 47.3306 43.7918 47.3306 47.4484C47.3306 51.0794 44.2601 54.0862 40.5781 54.0735C36.9088 54.0735 33.953 51.1049 33.953 47.4229C33.953 43.7409 36.8961 40.8105 40.5908 40.8105ZM45.9037 44.5945C45.8654 44.3015 45.7253 44.0084 45.4068 43.8173C45.101 43.6389 44.7952 43.6772 44.5149 43.8683C44.3238 44.0084 44.1582 44.1741 44.0053 44.3397C42.5019 45.9195 40.9985 47.4993 39.5206 49.1047C39.2149 49.4359 38.96 49.4741 38.6033 49.1938C38.2084 48.8753 37.7752 48.595 37.3547 48.3147C36.7941 47.9453 36.2718 48.0217 35.9533 48.4676C35.6348 48.9135 35.7367 49.3467 36.2973 49.7672C36.9598 50.264 37.635 50.7354 38.3103 51.2196C39.1384 51.8184 39.5206 51.7929 40.2341 51.0412C42.005 49.1556 43.7632 47.27 45.5342 45.3844C45.7125 45.1551 45.8782 44.9385 45.9037 44.5945Z" fill="white"/>
</svg>
