<svg width="58" height="57" viewBox="0 0 58 57" fill="none" xmlns="http://www.w3.org/2000/svg">
<rect x="1.32732" y="0.470629" width="55.3647" height="55.3647" rx="27.6823" fill="white" stroke="#07448E" stroke-width="0.941259"/>
<mask id="path-2-outside-1_32_1498" maskUnits="userSpaceOnUse" x="13.8567" y="15" width="30" height="25" fill="black">
<rect fill="white" x="13.8567" y="15" width="30" height="25"/>
<path fill-rule="evenodd" clip-rule="evenodd" d="M17.1757 16.1544C17.0213 16.2707 16.9592 16.5506 16.933 17.2484L16.8978 18.1861L15.8976 18.2486L14.8975 18.3111L14.8655 28.555C14.8401 36.6676 14.8662 38.8198 14.9905 38.8987C15.2335 39.053 32.3065 39.0279 32.5963 38.8728C32.7901 38.7691 32.8381 38.6077 32.8381 38.0602C32.8381 37.6844 32.8701 37.3769 32.9094 37.3769C32.9485 37.3769 33.231 37.5492 33.537 37.7598C34.3194 38.2981 35.6886 38.9188 36.0935 38.9188C36.5952 38.9188 38.1692 38.1302 39.0282 37.4485C41.8566 35.2034 43.34 31.9341 43.34 27.9454C43.34 26.1777 43.485 26.4005 42.1523 26.1206C40.2753 25.7264 38.1221 24.6377 36.813 23.4212C36.4893 23.1204 36.1475 22.8744 36.0533 22.8744C35.9592 22.8744 35.7502 23.015 35.5886 23.1869C34.9885 23.8258 34.9778 23.7682 34.9673 19.8481C34.9599 17.1107 34.9191 16.1723 34.8042 16.0993C34.72 16.0458 30.7658 16.0012 26.0171 16C19.3015 15.9985 17.3372 16.0329 17.1757 16.1544ZM17.7947 16.8308C17.7484 16.8771 17.7105 17.215 17.7105 17.5818V18.2486H25.1243C30.7239 18.2486 32.5748 18.2853 32.6881 18.3986C32.797 18.5075 32.8381 19.4322 32.8381 21.7742C32.8381 24.2725 32.8734 24.9993 32.9944 24.9974C33.0804 24.9961 33.4187 24.8267 33.7464 24.6209L34.3422 24.2469L34.309 20.5288L34.2759 16.8108L26.0774 16.7787C21.5683 16.7609 17.841 16.7844 17.7947 16.8308ZM15.5176 19.155C15.4848 19.241 15.4724 23.5589 15.4902 28.7504L15.5226 38.1896H23.774H32.0255L32.0626 37.412L32.0998 36.6343L31.3966 35.7867C30.2988 34.4631 29.4007 32.454 28.9497 30.3132C28.7915 29.5626 28.7118 26.5862 28.8462 26.4504C28.8854 26.4108 29.4613 26.2404 30.126 26.0717C30.7907 25.903 31.49 25.6906 31.6801 25.5996L32.0255 25.4341L32.0589 22.2164L32.0923 18.9987H23.8347C17.3439 18.9987 15.5645 19.0321 15.5176 19.155ZM18.8971 21.3572C18.3495 21.606 17.6411 22.3367 17.4432 22.857C17.2173 23.451 17.2933 24.4838 17.6078 25.0913C18.4512 26.7208 20.8179 26.9997 22.0076 25.6097C23.1668 24.2556 22.7754 22.2395 21.201 21.455C20.4102 21.0609 19.6228 21.0276 18.8971 21.3572ZM23.8841 21.5557C23.7265 21.9661 23.9656 21.9992 27.0811 21.9992C29.804 21.9992 30.1953 21.9747 30.2622 21.8004C30.3042 21.6911 30.3068 21.5504 30.2682 21.4879C30.2291 21.4245 28.8159 21.3741 27.0759 21.3741C24.4617 21.3741 23.9424 21.4036 23.8841 21.5557ZM19.0066 22.114C17.8536 22.817 17.6913 24.3225 18.6665 25.2677C19.0345 25.6242 19.1859 25.6811 19.868 25.7195C20.8186 25.773 21.3236 25.5094 21.7062 24.7596C22.06 24.0661 22.0347 23.4129 21.6299 22.7886C21.0611 21.9112 19.85 21.5998 19.0066 22.114ZM19.6227 22.8981C19.5232 23.4046 19.4894 23.4392 19.062 23.4751C18.8118 23.4961 18.5765 23.593 18.5391 23.6903C18.4377 23.9545 18.8218 24.2688 19.193 24.2252C19.4386 24.1965 19.528 24.2486 19.557 24.4372C19.6709 25.1778 19.7201 25.2659 19.9965 25.2267C20.2175 25.1953 20.2813 25.0927 20.3122 24.7185C20.3336 24.4607 20.3898 24.245 20.4372 24.2394C20.9384 24.1796 21.293 24.0901 21.384 24.0002C21.6058 23.7814 21.3467 23.5151 20.8743 23.4762C20.4213 23.4389 20.3954 23.413 20.3359 22.9369C20.2865 22.5423 20.2159 22.4287 20.001 22.3981C19.7698 22.3652 19.7124 22.4411 19.6227 22.8981ZM23.9199 23.5829C23.7498 23.753 23.8412 24.1247 24.0553 24.1334C24.1757 24.1382 25.595 24.1347 27.2094 24.1259C30.1692 24.1094 30.518 24.0548 30.1902 23.66C30.0885 23.5374 29.3413 23.4995 27.0301 23.4995C25.3653 23.4995 23.9657 23.537 23.9199 23.5829ZM35.6503 24.1255C35.3136 24.4975 33.5706 25.5871 32.6552 25.9979C31.8721 26.3492 31.0575 26.6192 29.9939 26.8796L29.4625 27.0097V28.0007C29.4625 29.2054 29.8226 31.1301 30.2693 32.3136C31.1985 34.775 32.8544 36.6873 34.9904 37.7655C35.9127 38.2311 36.2657 38.2208 37.2667 37.6991C40.352 36.091 42.2379 32.9547 42.6225 28.7922C42.7874 27.007 42.7725 26.9714 41.7761 26.7713C40.3406 26.483 38.4393 25.5822 36.9486 24.4843C36.4932 24.149 36.066 23.8746 35.9991 23.8746C35.9322 23.8746 35.7752 23.9875 35.6503 24.1255ZM35.117 25.4252C34.0811 26.1487 32.7815 26.7806 31.4004 27.232L30.2752 27.5998L30.2962 28.7689C30.346 31.5305 31.7116 34.4478 33.7275 36.0988C34.5607 36.7812 35.6641 37.3769 36.0946 37.3769C36.8592 37.3769 38.9557 35.7982 39.877 34.5287C40.9331 33.0734 41.6246 31.2447 41.8537 29.3019C42.0506 27.6326 42.0393 27.6088 40.8751 27.2672C39.6123 26.8965 38.1163 26.1873 37.0564 25.457C36.5916 25.1368 36.1415 24.8754 36.0562 24.8761C35.9709 24.8769 35.5482 25.1239 35.117 25.4252ZM23.9229 25.7053C23.7658 25.8623 23.8333 26.222 24.0343 26.2991C24.3381 26.4158 27.7524 26.3854 27.9433 26.2644C28.036 26.2056 28.0916 26.0517 28.0668 25.9224C28.0252 25.7058 27.8648 25.6848 26.0154 25.6531C24.912 25.6344 23.9703 25.6578 23.9229 25.7053ZM35.4636 26.0733C34.6301 26.6659 33.5199 27.2255 32.2443 27.6962L30.9628 28.1691L30.9637 28.8036C30.9651 29.7984 31.4186 31.4539 32.0451 32.7511C32.5321 33.7593 32.7818 34.0995 33.6974 35.0015C34.3927 35.6865 35.0131 36.1736 35.4432 36.372L36.1105 36.6797L36.8088 36.314C38.1483 35.6128 39.5858 34.0132 40.2728 32.4598C40.6874 31.5224 41.0637 30.0732 41.1609 29.0397L41.2454 28.1412L40.5111 27.9298C39.5503 27.6531 37.7004 26.7802 36.8576 26.2058C36.4897 25.9551 36.124 25.7526 36.045 25.756C35.9658 25.7594 35.7043 25.9022 35.4636 26.0733ZM17.4618 28.1862C17.3769 28.2885 17.34 28.4572 17.38 28.5613C17.4432 28.7259 18.1322 28.7504 22.7075 28.7504H27.9623V28.4512C27.9623 28.2867 27.8733 28.1179 27.7645 28.0762C27.6557 28.0344 25.3278 28.0003 22.5915 28.0003C18.3403 28.0003 17.5936 28.0274 17.4618 28.1862ZM34.9635 28.3162C33.0279 29.187 32.6627 31.764 34.2855 33.1016C35.5485 34.1426 37.543 33.8357 38.4356 32.463C38.7356 32.0017 38.7767 31.8167 38.7767 30.9292C38.7767 30.0366 38.7368 29.8596 38.4318 29.3988C37.8973 28.591 37.2489 28.2262 36.2449 28.1682C35.6561 28.1342 35.2688 28.1789 34.9635 28.3162ZM35.151 29.0213C34.7008 29.2704 34.3198 29.6806 34.14 30.1097C33.378 31.9284 35.3836 33.6945 37.1093 32.7246C37.7864 32.3441 38.1217 31.7606 38.1336 30.9423C38.1452 30.1372 37.7144 29.3979 37.0499 29.0825C36.5549 28.8477 35.5251 28.8144 35.151 29.0213ZM35.7895 29.5733C35.7478 29.6821 35.7136 29.9353 35.7136 30.1359C35.7136 30.4303 35.6594 30.5011 35.4323 30.5025C34.8565 30.506 34.5884 30.6468 34.5884 30.9457C34.5884 31.1985 34.658 31.2415 35.1198 31.275C35.6334 31.3121 35.6524 31.3288 35.6894 31.7727C35.7675 32.7121 36.4638 32.6789 36.4638 31.7357C36.4638 31.2527 36.4658 31.2509 36.9677 31.2509C37.3202 31.2509 37.4956 31.189 37.5507 31.0452C37.6527 30.7794 37.2762 30.5007 36.815 30.5007C36.501 30.5007 36.4638 30.457 36.4638 30.0882C36.4638 29.4791 35.9703 29.1022 35.7895 29.5733ZM17.4188 30.5841C17.2643 30.7386 17.3339 31.0985 17.5332 31.175C17.642 31.2167 18.6196 31.2509 19.7057 31.2509C21.3011 31.2509 21.7102 31.2151 21.8348 31.065C21.9197 30.9627 21.9566 30.7939 21.9166 30.6899C21.8557 30.5311 21.4956 30.5007 19.6731 30.5007C18.479 30.5007 17.4646 30.5382 17.4188 30.5841ZM22.4197 30.5841C22.2651 30.7386 22.3348 31.0985 22.5341 31.175C22.6428 31.2167 23.9018 31.2509 25.3317 31.2509C27.4903 31.2509 27.958 31.219 28.0873 31.0633C28.2114 30.9137 28.2114 30.8379 28.0873 30.6883C27.9577 30.5321 27.4776 30.5007 25.2173 30.5007C23.7244 30.5007 22.4654 30.5382 22.4197 30.5841ZM17.4794 32.9868C17.3867 33.0456 17.3312 33.1995 17.3559 33.3287C17.3968 33.5419 17.5494 33.567 18.9959 33.5988C20.3924 33.6294 20.601 33.6078 20.6712 33.4244C20.8261 33.021 20.3741 32.876 18.9681 32.878C18.2419 32.8792 17.5721 32.928 17.4794 32.9868ZM21.3375 33.0621C21.2526 33.1643 21.2157 33.3331 21.2557 33.4371C21.365 33.722 28.4335 33.722 28.5428 33.4371C28.5828 33.3331 28.5459 33.1643 28.461 33.0621C28.2307 32.7846 21.5678 32.7846 21.3375 33.0621ZM17.4205 35.4582C17.2645 35.6143 17.3329 35.9739 17.5332 36.0508C17.8406 36.1689 25.0031 36.1364 25.1928 36.0161C25.2856 35.9573 25.3411 35.8034 25.3162 35.6741C25.2733 35.451 25.0749 35.4375 21.3882 35.4061C19.2529 35.388 17.4673 35.4113 17.4205 35.4582ZM25.906 35.5921C25.7443 36.0136 26.1662 36.1267 27.8998 36.1267C29.6333 36.1267 30.0553 36.0136 29.8935 35.5921C29.8202 35.4011 29.5933 35.3766 27.8998 35.3766C26.2062 35.3766 25.9793 35.4011 25.906 35.5921Z"/>
</mask>
<path fill-rule="evenodd" clip-rule="evenodd" d="M17.1757 16.1544C17.0213 16.2707 16.9592 16.5506 16.933 17.2484L16.8978 18.1861L15.8976 18.2486L14.8975 18.3111L14.8655 28.555C14.8401 36.6676 14.8662 38.8198 14.9905 38.8987C15.2335 39.053 32.3065 39.0279 32.5963 38.8728C32.7901 38.7691 32.8381 38.6077 32.8381 38.0602C32.8381 37.6844 32.8701 37.3769 32.9094 37.3769C32.9485 37.3769 33.231 37.5492 33.537 37.7598C34.3194 38.2981 35.6886 38.9188 36.0935 38.9188C36.5952 38.9188 38.1692 38.1302 39.0282 37.4485C41.8566 35.2034 43.34 31.9341 43.34 27.9454C43.34 26.1777 43.485 26.4005 42.1523 26.1206C40.2753 25.7264 38.1221 24.6377 36.813 23.4212C36.4893 23.1204 36.1475 22.8744 36.0533 22.8744C35.9592 22.8744 35.7502 23.015 35.5886 23.1869C34.9885 23.8258 34.9778 23.7682 34.9673 19.8481C34.9599 17.1107 34.9191 16.1723 34.8042 16.0993C34.72 16.0458 30.7658 16.0012 26.0171 16C19.3015 15.9985 17.3372 16.0329 17.1757 16.1544ZM17.7947 16.8308C17.7484 16.8771 17.7105 17.215 17.7105 17.5818V18.2486H25.1243C30.7239 18.2486 32.5748 18.2853 32.6881 18.3986C32.797 18.5075 32.8381 19.4322 32.8381 21.7742C32.8381 24.2725 32.8734 24.9993 32.9944 24.9974C33.0804 24.9961 33.4187 24.8267 33.7464 24.6209L34.3422 24.2469L34.309 20.5288L34.2759 16.8108L26.0774 16.7787C21.5683 16.7609 17.841 16.7844 17.7947 16.8308ZM15.5176 19.155C15.4848 19.241 15.4724 23.5589 15.4902 28.7504L15.5226 38.1896H23.774H32.0255L32.0626 37.412L32.0998 36.6343L31.3966 35.7867C30.2988 34.4631 29.4007 32.454 28.9497 30.3132C28.7915 29.5626 28.7118 26.5862 28.8462 26.4504C28.8854 26.4108 29.4613 26.2404 30.126 26.0717C30.7907 25.903 31.49 25.6906 31.6801 25.5996L32.0255 25.4341L32.0589 22.2164L32.0923 18.9987H23.8347C17.3439 18.9987 15.5645 19.0321 15.5176 19.155ZM18.8971 21.3572C18.3495 21.606 17.6411 22.3367 17.4432 22.857C17.2173 23.451 17.2933 24.4838 17.6078 25.0913C18.4512 26.7208 20.8179 26.9997 22.0076 25.6097C23.1668 24.2556 22.7754 22.2395 21.201 21.455C20.4102 21.0609 19.6228 21.0276 18.8971 21.3572ZM23.8841 21.5557C23.7265 21.9661 23.9656 21.9992 27.0811 21.9992C29.804 21.9992 30.1953 21.9747 30.2622 21.8004C30.3042 21.6911 30.3068 21.5504 30.2682 21.4879C30.2291 21.4245 28.8159 21.3741 27.0759 21.3741C24.4617 21.3741 23.9424 21.4036 23.8841 21.5557ZM19.0066 22.114C17.8536 22.817 17.6913 24.3225 18.6665 25.2677C19.0345 25.6242 19.1859 25.6811 19.868 25.7195C20.8186 25.773 21.3236 25.5094 21.7062 24.7596C22.06 24.0661 22.0347 23.4129 21.6299 22.7886C21.0611 21.9112 19.85 21.5998 19.0066 22.114ZM19.6227 22.8981C19.5232 23.4046 19.4894 23.4392 19.062 23.4751C18.8118 23.4961 18.5765 23.593 18.5391 23.6903C18.4377 23.9545 18.8218 24.2688 19.193 24.2252C19.4386 24.1965 19.528 24.2486 19.557 24.4372C19.6709 25.1778 19.7201 25.2659 19.9965 25.2267C20.2175 25.1953 20.2813 25.0927 20.3122 24.7185C20.3336 24.4607 20.3898 24.245 20.4372 24.2394C20.9384 24.1796 21.293 24.0901 21.384 24.0002C21.6058 23.7814 21.3467 23.5151 20.8743 23.4762C20.4213 23.4389 20.3954 23.413 20.3359 22.9369C20.2865 22.5423 20.2159 22.4287 20.001 22.3981C19.7698 22.3652 19.7124 22.4411 19.6227 22.8981ZM23.9199 23.5829C23.7498 23.753 23.8412 24.1247 24.0553 24.1334C24.1757 24.1382 25.595 24.1347 27.2094 24.1259C30.1692 24.1094 30.518 24.0548 30.1902 23.66C30.0885 23.5374 29.3413 23.4995 27.0301 23.4995C25.3653 23.4995 23.9657 23.537 23.9199 23.5829ZM35.6503 24.1255C35.3136 24.4975 33.5706 25.5871 32.6552 25.9979C31.8721 26.3492 31.0575 26.6192 29.9939 26.8796L29.4625 27.0097V28.0007C29.4625 29.2054 29.8226 31.1301 30.2693 32.3136C31.1985 34.775 32.8544 36.6873 34.9904 37.7655C35.9127 38.2311 36.2657 38.2208 37.2667 37.6991C40.352 36.091 42.2379 32.9547 42.6225 28.7922C42.7874 27.007 42.7725 26.9714 41.7761 26.7713C40.3406 26.483 38.4393 25.5822 36.9486 24.4843C36.4932 24.149 36.066 23.8746 35.9991 23.8746C35.9322 23.8746 35.7752 23.9875 35.6503 24.1255ZM35.117 25.4252C34.0811 26.1487 32.7815 26.7806 31.4004 27.232L30.2752 27.5998L30.2962 28.7689C30.346 31.5305 31.7116 34.4478 33.7275 36.0988C34.5607 36.7812 35.6641 37.3769 36.0946 37.3769C36.8592 37.3769 38.9557 35.7982 39.877 34.5287C40.9331 33.0734 41.6246 31.2447 41.8537 29.3019C42.0506 27.6326 42.0393 27.6088 40.8751 27.2672C39.6123 26.8965 38.1163 26.1873 37.0564 25.457C36.5916 25.1368 36.1415 24.8754 36.0562 24.8761C35.9709 24.8769 35.5482 25.1239 35.117 25.4252ZM23.9229 25.7053C23.7658 25.8623 23.8333 26.222 24.0343 26.2991C24.3381 26.4158 27.7524 26.3854 27.9433 26.2644C28.036 26.2056 28.0916 26.0517 28.0668 25.9224C28.0252 25.7058 27.8648 25.6848 26.0154 25.6531C24.912 25.6344 23.9703 25.6578 23.9229 25.7053ZM35.4636 26.0733C34.6301 26.6659 33.5199 27.2255 32.2443 27.6962L30.9628 28.1691L30.9637 28.8036C30.9651 29.7984 31.4186 31.4539 32.0451 32.7511C32.5321 33.7593 32.7818 34.0995 33.6974 35.0015C34.3927 35.6865 35.0131 36.1736 35.4432 36.372L36.1105 36.6797L36.8088 36.314C38.1483 35.6128 39.5858 34.0132 40.2728 32.4598C40.6874 31.5224 41.0637 30.0732 41.1609 29.0397L41.2454 28.1412L40.5111 27.9298C39.5503 27.6531 37.7004 26.7802 36.8576 26.2058C36.4897 25.9551 36.124 25.7526 36.045 25.756C35.9658 25.7594 35.7043 25.9022 35.4636 26.0733ZM17.4618 28.1862C17.3769 28.2885 17.34 28.4572 17.38 28.5613C17.4432 28.7259 18.1322 28.7504 22.7075 28.7504H27.9623V28.4512C27.9623 28.2867 27.8733 28.1179 27.7645 28.0762C27.6557 28.0344 25.3278 28.0003 22.5915 28.0003C18.3403 28.0003 17.5936 28.0274 17.4618 28.1862ZM34.9635 28.3162C33.0279 29.187 32.6627 31.764 34.2855 33.1016C35.5485 34.1426 37.543 33.8357 38.4356 32.463C38.7356 32.0017 38.7767 31.8167 38.7767 30.9292C38.7767 30.0366 38.7368 29.8596 38.4318 29.3988C37.8973 28.591 37.2489 28.2262 36.2449 28.1682C35.6561 28.1342 35.2688 28.1789 34.9635 28.3162ZM35.151 29.0213C34.7008 29.2704 34.3198 29.6806 34.14 30.1097C33.378 31.9284 35.3836 33.6945 37.1093 32.7246C37.7864 32.3441 38.1217 31.7606 38.1336 30.9423C38.1452 30.1372 37.7144 29.3979 37.0499 29.0825C36.5549 28.8477 35.5251 28.8144 35.151 29.0213ZM35.7895 29.5733C35.7478 29.6821 35.7136 29.9353 35.7136 30.1359C35.7136 30.4303 35.6594 30.5011 35.4323 30.5025C34.8565 30.506 34.5884 30.6468 34.5884 30.9457C34.5884 31.1985 34.658 31.2415 35.1198 31.275C35.6334 31.3121 35.6524 31.3288 35.6894 31.7727C35.7675 32.7121 36.4638 32.6789 36.4638 31.7357C36.4638 31.2527 36.4658 31.2509 36.9677 31.2509C37.3202 31.2509 37.4956 31.189 37.5507 31.0452C37.6527 30.7794 37.2762 30.5007 36.815 30.5007C36.501 30.5007 36.4638 30.457 36.4638 30.0882C36.4638 29.4791 35.9703 29.1022 35.7895 29.5733ZM17.4188 30.5841C17.2643 30.7386 17.3339 31.0985 17.5332 31.175C17.642 31.2167 18.6196 31.2509 19.7057 31.2509C21.3011 31.2509 21.7102 31.2151 21.8348 31.065C21.9197 30.9627 21.9566 30.7939 21.9166 30.6899C21.8557 30.5311 21.4956 30.5007 19.6731 30.5007C18.479 30.5007 17.4646 30.5382 17.4188 30.5841ZM22.4197 30.5841C22.2651 30.7386 22.3348 31.0985 22.5341 31.175C22.6428 31.2167 23.9018 31.2509 25.3317 31.2509C27.4903 31.2509 27.958 31.219 28.0873 31.0633C28.2114 30.9137 28.2114 30.8379 28.0873 30.6883C27.9577 30.5321 27.4776 30.5007 25.2173 30.5007C23.7244 30.5007 22.4654 30.5382 22.4197 30.5841ZM17.4794 32.9868C17.3867 33.0456 17.3312 33.1995 17.3559 33.3287C17.3968 33.5419 17.5494 33.567 18.9959 33.5988C20.3924 33.6294 20.601 33.6078 20.6712 33.4244C20.8261 33.021 20.3741 32.876 18.9681 32.878C18.2419 32.8792 17.5721 32.928 17.4794 32.9868ZM21.3375 33.0621C21.2526 33.1643 21.2157 33.3331 21.2557 33.4371C21.365 33.722 28.4335 33.722 28.5428 33.4371C28.5828 33.3331 28.5459 33.1643 28.461 33.0621C28.2307 32.7846 21.5678 32.7846 21.3375 33.0621ZM17.4205 35.4582C17.2645 35.6143 17.3329 35.9739 17.5332 36.0508C17.8406 36.1689 25.0031 36.1364 25.1928 36.0161C25.2856 35.9573 25.3411 35.8034 25.3162 35.6741C25.2733 35.451 25.0749 35.4375 21.3882 35.4061C19.2529 35.388 17.4673 35.4113 17.4205 35.4582ZM25.906 35.5921C25.7443 36.0136 26.1662 36.1267 27.8998 36.1267C29.6333 36.1267 30.0553 36.0136 29.8935 35.5921C29.8202 35.4011 29.5933 35.3766 27.8998 35.3766C26.2062 35.3766 25.9793 35.4011 25.906 35.5921Z" fill="#002970"/>
<path fill-rule="evenodd" clip-rule="evenodd" d="M17.1757 16.1544C17.0213 16.2707 16.9592 16.5506 16.933 17.2484L16.8978 18.1861L15.8976 18.2486L14.8975 18.3111L14.8655 28.555C14.8401 36.6676 14.8662 38.8198 14.9905 38.8987C15.2335 39.053 32.3065 39.0279 32.5963 38.8728C32.7901 38.7691 32.8381 38.6077 32.8381 38.0602C32.8381 37.6844 32.8701 37.3769 32.9094 37.3769C32.9485 37.3769 33.231 37.5492 33.537 37.7598C34.3194 38.2981 35.6886 38.9188 36.0935 38.9188C36.5952 38.9188 38.1692 38.1302 39.0282 37.4485C41.8566 35.2034 43.34 31.9341 43.34 27.9454C43.34 26.1777 43.485 26.4005 42.1523 26.1206C40.2753 25.7264 38.1221 24.6377 36.813 23.4212C36.4893 23.1204 36.1475 22.8744 36.0533 22.8744C35.9592 22.8744 35.7502 23.015 35.5886 23.1869C34.9885 23.8258 34.9778 23.7682 34.9673 19.8481C34.9599 17.1107 34.9191 16.1723 34.8042 16.0993C34.72 16.0458 30.7658 16.0012 26.0171 16C19.3015 15.9985 17.3372 16.0329 17.1757 16.1544ZM17.7947 16.8308C17.7484 16.8771 17.7105 17.215 17.7105 17.5818V18.2486H25.1243C30.7239 18.2486 32.5748 18.2853 32.6881 18.3986C32.797 18.5075 32.8381 19.4322 32.8381 21.7742C32.8381 24.2725 32.8734 24.9993 32.9944 24.9974C33.0804 24.9961 33.4187 24.8267 33.7464 24.6209L34.3422 24.2469L34.309 20.5288L34.2759 16.8108L26.0774 16.7787C21.5683 16.7609 17.841 16.7844 17.7947 16.8308ZM15.5176 19.155C15.4848 19.241 15.4724 23.5589 15.4902 28.7504L15.5226 38.1896H23.774H32.0255L32.0626 37.412L32.0998 36.6343L31.3966 35.7867C30.2988 34.4631 29.4007 32.454 28.9497 30.3132C28.7915 29.5626 28.7118 26.5862 28.8462 26.4504C28.8854 26.4108 29.4613 26.2404 30.126 26.0717C30.7907 25.903 31.49 25.6906 31.6801 25.5996L32.0255 25.4341L32.0589 22.2164L32.0923 18.9987H23.8347C17.3439 18.9987 15.5645 19.0321 15.5176 19.155ZM18.8971 21.3572C18.3495 21.606 17.6411 22.3367 17.4432 22.857C17.2173 23.451 17.2933 24.4838 17.6078 25.0913C18.4512 26.7208 20.8179 26.9997 22.0076 25.6097C23.1668 24.2556 22.7754 22.2395 21.201 21.455C20.4102 21.0609 19.6228 21.0276 18.8971 21.3572ZM23.8841 21.5557C23.7265 21.9661 23.9656 21.9992 27.0811 21.9992C29.804 21.9992 30.1953 21.9747 30.2622 21.8004C30.3042 21.6911 30.3068 21.5504 30.2682 21.4879C30.2291 21.4245 28.8159 21.3741 27.0759 21.3741C24.4617 21.3741 23.9424 21.4036 23.8841 21.5557ZM19.0066 22.114C17.8536 22.817 17.6913 24.3225 18.6665 25.2677C19.0345 25.6242 19.1859 25.6811 19.868 25.7195C20.8186 25.773 21.3236 25.5094 21.7062 24.7596C22.06 24.0661 22.0347 23.4129 21.6299 22.7886C21.0611 21.9112 19.85 21.5998 19.0066 22.114ZM19.6227 22.8981C19.5232 23.4046 19.4894 23.4392 19.062 23.4751C18.8118 23.4961 18.5765 23.593 18.5391 23.6903C18.4377 23.9545 18.8218 24.2688 19.193 24.2252C19.4386 24.1965 19.528 24.2486 19.557 24.4372C19.6709 25.1778 19.7201 25.2659 19.9965 25.2267C20.2175 25.1953 20.2813 25.0927 20.3122 24.7185C20.3336 24.4607 20.3898 24.245 20.4372 24.2394C20.9384 24.1796 21.293 24.0901 21.384 24.0002C21.6058 23.7814 21.3467 23.5151 20.8743 23.4762C20.4213 23.4389 20.3954 23.413 20.3359 22.9369C20.2865 22.5423 20.2159 22.4287 20.001 22.3981C19.7698 22.3652 19.7124 22.4411 19.6227 22.8981ZM23.9199 23.5829C23.7498 23.753 23.8412 24.1247 24.0553 24.1334C24.1757 24.1382 25.595 24.1347 27.2094 24.1259C30.1692 24.1094 30.518 24.0548 30.1902 23.66C30.0885 23.5374 29.3413 23.4995 27.0301 23.4995C25.3653 23.4995 23.9657 23.537 23.9199 23.5829ZM35.6503 24.1255C35.3136 24.4975 33.5706 25.5871 32.6552 25.9979C31.8721 26.3492 31.0575 26.6192 29.9939 26.8796L29.4625 27.0097V28.0007C29.4625 29.2054 29.8226 31.1301 30.2693 32.3136C31.1985 34.775 32.8544 36.6873 34.9904 37.7655C35.9127 38.2311 36.2657 38.2208 37.2667 37.6991C40.352 36.091 42.2379 32.9547 42.6225 28.7922C42.7874 27.007 42.7725 26.9714 41.7761 26.7713C40.3406 26.483 38.4393 25.5822 36.9486 24.4843C36.4932 24.149 36.066 23.8746 35.9991 23.8746C35.9322 23.8746 35.7752 23.9875 35.6503 24.1255ZM35.117 25.4252C34.0811 26.1487 32.7815 26.7806 31.4004 27.232L30.2752 27.5998L30.2962 28.7689C30.346 31.5305 31.7116 34.4478 33.7275 36.0988C34.5607 36.7812 35.6641 37.3769 36.0946 37.3769C36.8592 37.3769 38.9557 35.7982 39.877 34.5287C40.9331 33.0734 41.6246 31.2447 41.8537 29.3019C42.0506 27.6326 42.0393 27.6088 40.8751 27.2672C39.6123 26.8965 38.1163 26.1873 37.0564 25.457C36.5916 25.1368 36.1415 24.8754 36.0562 24.8761C35.9709 24.8769 35.5482 25.1239 35.117 25.4252ZM23.9229 25.7053C23.7658 25.8623 23.8333 26.222 24.0343 26.2991C24.3381 26.4158 27.7524 26.3854 27.9433 26.2644C28.036 26.2056 28.0916 26.0517 28.0668 25.9224C28.0252 25.7058 27.8648 25.6848 26.0154 25.6531C24.912 25.6344 23.9703 25.6578 23.9229 25.7053ZM35.4636 26.0733C34.6301 26.6659 33.5199 27.2255 32.2443 27.6962L30.9628 28.1691L30.9637 28.8036C30.9651 29.7984 31.4186 31.4539 32.0451 32.7511C32.5321 33.7593 32.7818 34.0995 33.6974 35.0015C34.3927 35.6865 35.0131 36.1736 35.4432 36.372L36.1105 36.6797L36.8088 36.314C38.1483 35.6128 39.5858 34.0132 40.2728 32.4598C40.6874 31.5224 41.0637 30.0732 41.1609 29.0397L41.2454 28.1412L40.5111 27.9298C39.5503 27.6531 37.7004 26.7802 36.8576 26.2058C36.4897 25.9551 36.124 25.7526 36.045 25.756C35.9658 25.7594 35.7043 25.9022 35.4636 26.0733ZM17.4618 28.1862C17.3769 28.2885 17.34 28.4572 17.38 28.5613C17.4432 28.7259 18.1322 28.7504 22.7075 28.7504H27.9623V28.4512C27.9623 28.2867 27.8733 28.1179 27.7645 28.0762C27.6557 28.0344 25.3278 28.0003 22.5915 28.0003C18.3403 28.0003 17.5936 28.0274 17.4618 28.1862ZM34.9635 28.3162C33.0279 29.187 32.6627 31.764 34.2855 33.1016C35.5485 34.1426 37.543 33.8357 38.4356 32.463C38.7356 32.0017 38.7767 31.8167 38.7767 30.9292C38.7767 30.0366 38.7368 29.8596 38.4318 29.3988C37.8973 28.591 37.2489 28.2262 36.2449 28.1682C35.6561 28.1342 35.2688 28.1789 34.9635 28.3162ZM35.151 29.0213C34.7008 29.2704 34.3198 29.6806 34.14 30.1097C33.378 31.9284 35.3836 33.6945 37.1093 32.7246C37.7864 32.3441 38.1217 31.7606 38.1336 30.9423C38.1452 30.1372 37.7144 29.3979 37.0499 29.0825C36.5549 28.8477 35.5251 28.8144 35.151 29.0213ZM35.7895 29.5733C35.7478 29.6821 35.7136 29.9353 35.7136 30.1359C35.7136 30.4303 35.6594 30.5011 35.4323 30.5025C34.8565 30.506 34.5884 30.6468 34.5884 30.9457C34.5884 31.1985 34.658 31.2415 35.1198 31.275C35.6334 31.3121 35.6524 31.3288 35.6894 31.7727C35.7675 32.7121 36.4638 32.6789 36.4638 31.7357C36.4638 31.2527 36.4658 31.2509 36.9677 31.2509C37.3202 31.2509 37.4956 31.189 37.5507 31.0452C37.6527 30.7794 37.2762 30.5007 36.815 30.5007C36.501 30.5007 36.4638 30.457 36.4638 30.0882C36.4638 29.4791 35.9703 29.1022 35.7895 29.5733ZM17.4188 30.5841C17.2643 30.7386 17.3339 31.0985 17.5332 31.175C17.642 31.2167 18.6196 31.2509 19.7057 31.2509C21.3011 31.2509 21.7102 31.2151 21.8348 31.065C21.9197 30.9627 21.9566 30.7939 21.9166 30.6899C21.8557 30.5311 21.4956 30.5007 19.6731 30.5007C18.479 30.5007 17.4646 30.5382 17.4188 30.5841ZM22.4197 30.5841C22.2651 30.7386 22.3348 31.0985 22.5341 31.175C22.6428 31.2167 23.9018 31.2509 25.3317 31.2509C27.4903 31.2509 27.958 31.219 28.0873 31.0633C28.2114 30.9137 28.2114 30.8379 28.0873 30.6883C27.9577 30.5321 27.4776 30.5007 25.2173 30.5007C23.7244 30.5007 22.4654 30.5382 22.4197 30.5841ZM17.4794 32.9868C17.3867 33.0456 17.3312 33.1995 17.3559 33.3287C17.3968 33.5419 17.5494 33.567 18.9959 33.5988C20.3924 33.6294 20.601 33.6078 20.6712 33.4244C20.8261 33.021 20.3741 32.876 18.9681 32.878C18.2419 32.8792 17.5721 32.928 17.4794 32.9868ZM21.3375 33.0621C21.2526 33.1643 21.2157 33.3331 21.2557 33.4371C21.365 33.722 28.4335 33.722 28.5428 33.4371C28.5828 33.3331 28.5459 33.1643 28.461 33.0621C28.2307 32.7846 21.5678 32.7846 21.3375 33.0621ZM17.4205 35.4582C17.2645 35.6143 17.3329 35.9739 17.5332 36.0508C17.8406 36.1689 25.0031 36.1364 25.1928 36.0161C25.2856 35.9573 25.3411 35.8034 25.3162 35.6741C25.2733 35.451 25.0749 35.4375 21.3882 35.4061C19.2529 35.388 17.4673 35.4113 17.4205 35.4582ZM25.906 35.5921C25.7443 36.0136 26.1662 36.1267 27.8998 36.1267C29.6333 36.1267 30.0553 36.0136 29.8935 35.5921C29.8202 35.4011 29.5933 35.3766 27.8998 35.3766C26.2062 35.3766 25.9793 35.4011 25.906 35.5921Z" stroke="#002970" stroke-width="0.2" mask="url(#path-2-outside-1_32_1498)"/>
</svg>
