<svg width="44" height="39" viewBox="0 0 44 39" fill="none" xmlns="http://www.w3.org/2000/svg">
<path fill-rule="evenodd" clip-rule="evenodd" d="M18.2853 3.35994C11.169 4.68365 5.11897 5.84065 4.84073 5.93079C2.43775 6.71006 0.680992 8.64876 0.488672 10.7333C0.41812 11.498 0.418888 11.5002 0.647701 11.1845C1.44772 10.0809 2.33595 9.38142 3.42176 8.99973C4.44073 8.64159 31.9191 3.6013 32.3873 3.6867C32.9398 3.78735 33.772 4.53998 34.1155 5.2496C34.3392 5.71171 34.4179 6.14321 34.4629 7.15206L34.5209 8.45683L35.5612 8.53608C36.1335 8.57962 36.7312 8.65209 36.8897 8.69691C37.1747 8.77757 37.1778 8.76464 37.1778 7.5006C37.1778 6.79777 37.1199 5.91235 37.0491 5.53296C36.7351 3.85098 35.4703 2.14442 34.0014 1.42124C32.5178 0.690749 32.8641 0.648111 18.2853 3.35994ZM4.26415 9.36657C2.70587 9.77337 1.56782 10.7438 0.848985 12.2788L0.493409 13.0381V23.9858V34.9335L0.79239 35.6742C1.21096 36.7113 2.27475 37.8264 3.35133 38.3563L4.20129 38.7748H20.4655H36.7296L37.4663 38.4296C38.4966 37.9467 39.5283 36.9306 40.031 35.9033L40.4429 35.0615L40.484 31.5083L40.525 27.9551L36.5787 27.9549C32.173 27.9547 32.0229 27.9289 31.4504 27.0719C31.1724 26.6559 31.1598 26.5249 31.1598 24.0822C31.1598 21.2236 31.2406 20.865 31.9887 20.4026C32.3845 20.1581 32.6193 20.1445 36.4657 20.1445H40.525L40.484 16.5913L40.4429 13.0381L40.0472 12.2058C39.5387 11.1361 39.0882 10.6118 38.1659 10.0158C36.7437 9.09653 37.4623 9.13187 20.3789 9.14019C6.39223 9.14685 5.03216 9.16606 4.26415 9.36657ZM32.1668 21.1665L31.785 21.5482L31.8246 24.1228L31.864 26.6973L32.2233 27.0062L32.5826 27.3149H37.69H42.7974L43.1566 27.0062L43.5159 26.6973L43.5554 24.1228L43.5949 21.5482L43.2131 21.1665L42.8314 20.7847H37.69H32.5485L32.1668 21.1665ZM39.1798 23.2269C38.486 23.7725 38.8667 25.0101 39.7282 25.0101C40.2766 25.0101 40.4942 24.8937 40.7037 24.4887C40.9729 23.9682 40.9387 23.7577 40.5168 23.3357C40.0749 22.894 39.6472 22.8591 39.1798 23.2269Z" fill="white"/>
</svg>
