<svg width="46" height="46" viewBox="0 0 46 46" fill="none" xmlns="http://www.w3.org/2000/svg">
<path fill-rule="evenodd" clip-rule="evenodd" d="M20.948 0.107911C18.4576 0.347192 15.2867 1.32693 12.8252 2.61758C7.30933 5.50993 3.05773 10.8857 1.55319 16.8703C0.932627 19.3388 0.855688 19.9686 0.856699 22.5794C0.857963 26.4824 1.51731 29.3487 3.18344 32.695C7.17554 40.7132 15.4613 45.5633 24.4513 45.1444C38.4584 44.4916 48.4965 31.1659 45.3037 17.4627C42.7232 6.38721 32.3707 -0.989446 20.948 0.107911ZM21.131 2.69237C20.9573 2.72143 20.3888 2.80759 19.8677 2.88377C18.4619 3.0892 15.7156 4.03659 14.1947 4.84072C12.735 5.61251 11.6051 6.37192 10.5035 7.32172L9.79335 7.93381L10.2569 9.03458C10.5118 9.63986 10.8327 10.4181 10.9699 10.7639L11.2196 11.3924L14.0962 12.5522C15.6785 13.19 17.3351 13.8398 17.7778 13.9961L18.5826 14.2802L16.6036 16.3847C13.5443 19.6381 12.2898 21.2668 12.2847 21.9919C12.2781 22.9421 11.505 23.9453 10.3399 24.5157C9.69885 24.8297 7.61784 25.4922 7.31463 25.4788C7.23555 25.4752 6.43179 24.2767 5.52849 22.8152C4.62519 21.3539 3.81954 20.1028 3.73818 20.0351C3.4965 19.8339 3.40023 21.1411 3.48601 23.4574C3.52859 24.6073 3.64898 25.9688 3.75359 26.4828C4.24289 28.8877 5.42944 31.7255 6.79653 33.7601C7.68442 35.0816 9.38491 36.9936 10.4484 37.866C11.7402 38.926 11.6558 38.9522 11.6558 37.4925C11.6558 36.4439 11.733 35.9297 12.0976 34.5488C12.3405 33.6286 12.5395 32.7718 12.5398 32.6446C12.54 32.5175 12.2493 31.7358 11.8939 30.9077L11.2477 29.4021L12.0468 27.4436C12.764 25.6858 12.8724 25.4929 13.1036 25.5634C13.3649 25.643 16.3508 26.7222 17.2778 27.072C17.8283 27.2798 24.7316 32.1882 24.7316 32.3719C24.7316 32.4338 23.5964 33.2832 22.2089 34.2594L19.6862 36.0342L18.7018 38.8692C18.1604 40.4284 17.7606 41.7465 17.8134 41.7983C17.8662 41.8502 18.478 42.0142 19.1728 42.1629C20.9956 42.5529 24.471 42.6445 26.4372 42.3543C32.0466 41.5261 37.2816 38.0281 40.3387 33.0653C42.0917 30.2195 43.1209 26.93 43.2617 23.7229L43.303 22.782L41.029 22.8157C39.7783 22.8343 38.6244 22.8808 38.4649 22.9191C38.2706 22.9657 38.0557 23.2244 37.8141 23.703L37.4536 24.4174L38.1628 25.9153L38.8721 27.4132L38.1202 28.0599C37.7067 28.4156 37.1482 28.9084 36.879 29.155L36.3895 29.6034L36.6113 30.8703C36.9539 32.8274 36.9833 32.7659 34.739 34.7783C32.6001 36.696 31.9289 37.2035 31.3878 37.3118C30.9298 37.4034 30.337 37.1116 29.9895 36.6237C29.6048 36.0833 29.1136 34.2556 28.7615 32.0546C28.5893 30.9776 28.3312 29.663 28.1878 29.1334L27.9273 28.1706L27.4665 28.2778C26.3902 28.5279 26.1917 28.4061 22.6634 25.3317L22.2376 24.9607L23.2103 23.3645L24.1829 21.7683L24.0374 20.2591L23.8919 18.7497L24.9751 17.6616C25.9305 16.7016 26.0581 16.5201 26.0581 16.1212C26.0581 15.8724 26.0945 15.2378 26.1391 14.7109L26.2201 13.7529L27.7835 12.0703C28.6435 11.145 29.4456 10.3487 29.566 10.301C29.6865 10.2531 31.3201 9.68926 33.1961 9.0481C35.0722 8.40682 36.6357 7.85738 36.6704 7.82731C36.7051 7.79712 36.4777 7.54798 36.165 7.27371C33.9137 5.29857 30.1445 3.4893 27.0836 2.9146C26.0536 2.72118 21.8861 2.56553 21.131 2.69237ZM34.6585 11.2782L30.8146 12.5974L29.7801 13.7035L28.7456 14.8097L28.6642 16.048C28.6194 16.7292 28.4986 17.4879 28.3957 17.7341C28.2928 17.9803 27.8359 18.5317 27.3805 18.9593L26.5524 19.7368L26.6966 21.0655L26.8409 22.394L26.2115 23.4196L25.582 24.4453L26.1602 24.9336C27.1426 25.7632 27.0566 25.7345 28.0234 25.5544C30.0032 25.1858 29.7887 25.1675 29.9541 25.7193C30.4689 27.4375 30.9139 29.381 31.2455 31.3597C31.4552 32.6105 31.6535 33.711 31.6863 33.8052C31.7464 33.9788 31.8286 33.9154 33.4908 32.4111L34.1645 31.8015L33.8575 30.2125L33.5504 28.6235L34.5735 27.7262C35.1362 27.2326 35.6121 26.7925 35.631 26.7483C35.65 26.7041 35.4073 26.1484 35.0916 25.5131L34.5177 24.3582L35.6171 22.3317L36.7166 20.3053H37.8103C38.4119 20.3053 39.8512 20.2679 41.0088 20.2223L43.1135 20.1393V19.838C43.1135 18.8406 42.3899 16.309 41.5677 14.4307C40.7426 12.5453 39.0465 9.93574 38.6573 9.95229C38.572 9.95595 36.7726 10.5526 34.6585 11.2782ZM7.0396 11.0898C6.14665 12.3568 4.96048 14.6448 4.57629 15.8408L4.28572 16.7458L5.15971 17.738C5.64055 18.2838 6.57114 19.5886 7.22771 20.6378L8.42172 22.5454L8.87008 22.3597C9.51655 22.0919 9.59336 22.0026 9.68799 21.4083C9.843 20.4356 10.9536 18.7795 12.9697 16.5152C13.4956 15.9246 13.9268 15.4065 13.9278 15.3638C13.929 15.3211 13.0629 14.9321 12.0032 14.4994C10.9435 14.0666 9.89164 13.5726 9.6655 13.4015C9.26274 13.0968 8.2384 11.2079 8.04839 10.4195C8.00228 10.2283 7.91789 10.0721 7.86066 10.0721C7.80355 10.0721 7.43402 10.53 7.0396 11.0898ZM14.1746 29.0373C14.0544 29.2618 14.1362 29.5521 14.6832 30.8435L15.3351 32.3822L14.7829 34.5872L14.2307 36.7922L14.3014 38.6233L14.372 40.4544L14.8127 40.662L15.2534 40.8697L15.4516 40.347C15.5606 40.0595 16.0668 38.5974 16.5767 37.0979C17.4539 34.5185 17.5283 34.3553 17.9592 34.0676C18.5358 33.6827 20.1493 32.5463 20.289 32.4266C20.347 32.377 19.5132 31.7049 18.4363 30.933C16.9464 29.865 16.2318 29.4387 15.448 29.1496C14.8815 28.9408 14.3954 28.7698 14.3679 28.7698C14.3403 28.7698 14.2533 28.8902 14.1746 29.0373Z" fill="#021443"/>
</svg>
