<svg width="47" height="47" viewBox="0 0 47 47" fill="none" xmlns="http://www.w3.org/2000/svg">
<path d="M26.5544 3.64798C26.6278 4.94556 26.028 5.92487 25.0242 6.67159C24.6815 6.92866 24.559 7.17349 24.6692 7.60193C24.7671 8.04262 24.9875 8.26297 25.4404 8.32417C27.9132 8.64245 30.1656 9.53606 32.1976 10.9805C32.5526 11.2254 32.8464 11.2621 33.1769 10.9561C33.3606 10.7847 33.5564 10.6378 33.7523 10.5031C34.4011 10.038 35.0131 9.64624 35.0744 8.64245C35.1356 7.60193 36.2373 6.96538 37.339 7.01435C38.4285 7.06331 39.2854 7.87124 39.469 9.02193C39.6159 9.9033 38.9793 10.9438 38.0857 11.3111C37.9143 11.3845 37.7307 11.4947 37.5593 11.4702C36.678 11.3355 36.3719 11.9843 35.9925 12.5597C35.2457 13.6981 35.2213 13.7104 35.9925 14.7876C37.3268 16.6728 38.1469 18.7538 38.5509 21.0184C38.5754 21.1409 38.5876 21.2755 38.6611 21.3612C38.9671 21.7774 40.7421 21.8019 41.0726 21.4102C41.905 20.4064 43.1659 20.0514 44.2554 20.5165C45.504 21.0552 46.1895 22.2181 46.0304 23.5646C45.8957 24.7153 44.8552 25.7803 43.6433 25.9639C42.713 26.0986 41.8928 25.7926 41.2685 25.0948C40.5707 24.2991 39.824 24.85 39.114 24.9601C38.5754 25.0336 38.6243 25.6089 38.5754 26.0129C38.2204 28.3632 37.3023 30.4688 35.9925 32.4274C35.8088 32.6967 35.6375 32.9048 35.87 33.2475C36.0904 33.5536 36.323 33.7127 36.7392 33.627C38.5509 33.2231 40.0443 33.7249 41.1216 35.2674C41.954 36.4548 41.9417 38.2665 41.0849 39.5396C40.1423 40.9596 38.5631 41.5839 36.8738 41.2044C35.4538 40.8861 34.2542 39.6008 34.0094 38.1808C33.9237 37.6667 33.8992 37.177 34.0094 36.6629C34.1073 36.2099 33.9482 35.8917 33.5442 35.6468C33.1525 35.4143 32.9321 35.6713 32.6751 35.8672C30.6675 37.3851 28.4151 38.3399 25.9423 38.7684C25.5016 38.8418 25.367 39.1111 25.3547 39.4906C25.3303 39.9558 25.318 40.421 25.1589 40.8739C25.0609 41.1677 25.2078 41.3635 25.4282 41.5594C26.4809 42.4897 26.6523 43.8363 25.8566 44.9625C25.0242 46.1377 23.3472 46.3703 22.2454 45.4644C21.0703 44.4973 20.9356 42.8815 21.9884 41.8042C22.2944 41.4982 22.4168 41.2044 22.3066 40.776C22.1842 40.2985 22.0985 39.8211 22.0373 39.3437C21.9761 38.9275 21.6701 38.9153 21.3641 38.8663C19.4422 38.5848 17.6304 38.0094 15.9411 37.0424C15.427 36.7486 14.9251 36.4425 14.4355 36.0998C14.1784 35.9161 13.9458 35.8794 13.7377 36.1242C13.5051 36.3936 13.0522 36.4915 13.1868 37.0301C13.7377 39.1601 12.5503 41.0698 10.4081 41.5716C8.47393 42.0246 6.40514 40.5923 6.11135 38.6337C5.69514 35.9039 8.08221 33.9208 10.3591 34.4227C10.91 34.5451 11.0569 34.1167 11.3017 33.8229C11.5465 33.5291 11.4241 33.2598 11.2282 32.9905C9.69806 30.9706 8.68203 28.7305 8.25358 26.2332C8.21686 25.9884 8.19238 25.6334 7.86186 25.6089C7.24979 25.5722 6.62549 25.3519 6.07463 25.8783C4.98515 26.931 3.71205 27.1024 2.42671 26.3924C1.33723 25.7436 0.81085 24.752 0.859816 23.5524C0.921023 22.2915 1.53309 21.2877 2.76946 20.8103C3.90791 20.3696 4.97291 20.4921 5.90325 21.3367C6.08687 21.4959 6.28273 21.6672 6.3929 21.8753C6.69893 22.4017 7.13962 22.3283 7.62928 22.2426C8.11893 22.1446 8.10669 21.7896 8.16789 21.4102C8.52289 19.0721 9.28186 16.8931 10.6651 14.9712C11.0446 14.4326 11.1425 14.0164 10.6162 13.539C10.3958 13.3309 10.2367 13.0616 10.0775 12.8045C9.74703 12.2904 9.33082 12.0455 8.68203 12.0211C7.65376 11.9966 6.82135 10.9316 6.82135 9.80537C6.83359 8.70365 7.71497 7.69986 8.74324 7.61417C10.2244 7.49176 11.2282 8.32417 11.3384 9.79313C11.3629 10.0869 11.4486 10.295 11.6934 10.4542C12.2075 10.7969 12.7094 11.1274 13.2113 11.4824C13.4806 11.6783 13.701 11.5926 13.9336 11.4212C15.9656 9.82986 18.2548 8.82607 20.7887 8.3609C21.2784 8.27521 21.3151 7.94469 21.413 7.58969C21.5232 7.22245 21.413 6.97762 21.0947 6.76952C19.9685 6.0228 19.2953 5.03125 19.2953 3.6235C19.3075 1.65264 20.9479 0.0367853 22.931 6.12744e-05C24.8651 -0.0121801 26.7625 1.81178 26.5544 3.64798ZM16.1982 22.0834C13.9091 22.2181 11.62 22.4629 9.33082 22.7077C8.85341 22.7567 8.65755 23.026 8.68203 23.4912C8.7922 25.0091 8.92686 26.527 9.41651 27.996C10.2612 30.5422 11.6322 32.7334 13.652 34.5084C13.9948 34.8022 14.2396 34.7655 14.5456 34.4962C16.6511 32.6722 18.7199 30.7993 20.703 28.8407C21.107 28.4489 21.0947 28.2286 20.6663 27.8369C19.1973 26.4903 17.9854 24.9357 17.3734 23.0015C17.0918 22.0712 17.1163 22.059 16.1982 22.0834ZM23.4451 38.2175C23.592 38.2175 23.7266 38.2053 23.8735 38.2175C24.5346 38.3032 24.8039 38.0461 24.8773 37.3606C24.9997 36.161 24.8406 34.9491 25.0732 33.7617C25.2078 33.0517 25.1834 32.3417 25.1834 31.6317C25.1834 31.3134 25.0854 31.0808 24.8039 30.9217C23.8491 30.3831 22.9432 29.7588 22.0741 29.0732C21.866 28.9019 21.7068 28.9141 21.4987 29.11C19.4422 31.0931 17.3856 33.0639 15.2067 34.9124C14.7415 35.3041 14.8272 35.5122 15.2924 35.806C17.7773 37.3851 20.4949 38.2053 23.4451 38.2175ZM25.5751 37.0424C25.5506 38.0461 25.5751 38.0706 26.3463 37.9115C29.4801 37.2505 32.112 35.7203 34.2787 33.3699C34.5969 33.0272 34.5602 32.7579 34.2787 32.4151C33.1035 31.0074 31.8549 29.6608 30.6308 28.302C30.3614 27.996 30.1411 27.9715 29.8228 28.2653C28.8435 29.1589 27.852 30.0525 26.7013 30.7136C26.0892 31.0686 25.8566 31.546 25.8321 32.1948C25.7587 33.8841 25.9546 35.5856 25.5751 37.0424ZM9.45324 21.9365C11.1793 21.6795 12.9175 21.5571 14.668 21.4102C15.2801 21.3612 15.8922 21.349 16.492 21.3C16.8348 21.2755 17.1653 21.1653 17.0796 20.7124C16.8715 19.5372 17.0918 18.3498 16.896 17.1747C16.8348 16.7829 16.7858 16.3422 16.9694 15.9628C17.1408 15.6078 16.9939 15.3752 16.7368 15.1671C15.831 14.4448 14.9129 13.7348 14.0193 12.9881C13.6887 12.7188 13.4806 12.78 13.1991 13.0493C11.62 14.555 10.4815 16.3422 9.69806 18.3743C9.33082 19.3291 9.03703 20.2962 8.91462 21.3245C8.87789 21.6795 8.95134 21.9855 9.45324 21.9365ZM33.0178 18.9741C33.0178 18.6314 33.0178 18.2764 33.0178 17.9336C33.0178 17.5909 33.0178 17.2359 33.0178 16.8931C33.0178 15.6445 32.9688 15.62 31.7937 15.216C29.6514 14.4816 27.5092 13.7471 25.673 12.3638C25.367 12.1312 25.0854 12.168 24.7794 12.3883C24.3754 12.6943 23.9592 12.9881 23.5308 13.2574C21.9149 14.2979 20.1154 14.9835 18.3282 15.669C17.8753 15.8404 17.7039 16.1097 17.7161 16.5871C17.7406 17.9703 17.6917 19.3659 17.7406 20.7491C17.7773 21.7529 17.9732 22.7322 18.4139 23.6381C19.8339 26.5393 22.2087 28.4612 24.8651 30.1382C25.4282 30.4932 25.8566 30.432 26.3708 30.0893C27.9621 29.012 29.3944 27.7267 30.6675 26.2945C31.6835 25.156 32.418 23.8584 32.8342 22.3772C33.177 21.2388 32.9199 20.1003 33.0178 18.9741ZM37.9388 24.0788C38.0245 23.6748 37.9266 23.1852 37.9266 22.6955C37.9266 22.3527 37.7552 22.1324 37.4247 22.1324C36.323 22.1079 35.2335 21.9121 34.1318 21.961C33.9237 21.9733 33.7156 22.01 33.6544 22.2548C33.2259 24.091 32.2344 25.6089 31.0347 27.0167C30.8266 27.2738 30.8756 27.4941 31.0837 27.7145C32.2956 29.061 33.4952 30.4198 34.7071 31.7663C35.16 32.2682 35.2335 32.2682 35.5885 31.6806C36.984 29.367 37.9878 26.9188 37.9388 24.0788ZM23.0901 8.86279C22.8453 8.88727 22.478 8.93624 22.1108 8.96072C19.3442 9.15658 16.896 10.1726 14.668 11.7762C14.3008 12.0455 14.2886 12.2414 14.6558 12.523C15.4637 13.1473 16.2961 13.7471 17.0306 14.4448C17.6305 15.0324 18.1568 14.9957 18.8791 14.6897C20.6418 13.9307 22.4291 13.2452 23.9959 12.1067C24.3509 11.8497 24.4734 11.5436 24.4611 11.1274C24.4489 10.6745 24.253 10.2583 24.2163 9.80537C24.1551 8.89951 24.0939 8.85055 23.0901 8.86279ZM34.6214 37.3729C34.6214 39.1479 36.0169 40.5434 37.7919 40.5556C39.5669 40.5556 40.9869 39.1234 40.9869 37.3239C40.9869 35.5734 39.5669 34.1779 37.7797 34.1901C35.9925 34.1901 34.6214 35.5856 34.6214 37.3729ZM23.0289 0.771266C21.4253 0.599887 20.0787 1.9954 19.993 3.6235C19.9196 5.20263 21.3396 6.62263 22.9187 6.63487C24.5468 6.64711 25.8934 5.3128 25.9423 3.72143C25.979 2.15454 24.559 0.599887 23.0289 0.771266ZM9.63686 35.0593C8.03324 35.0715 6.71118 36.418 6.7479 38.0217C6.78462 39.5885 8.09445 40.8616 9.68582 40.8739C11.2772 40.8984 12.5503 39.6375 12.5625 38.0094C12.587 36.3324 11.3139 35.047 9.63686 35.0593ZM25.5751 9.05865C25.1589 8.9852 24.9875 9.03417 25.012 9.36469C25.0487 9.79313 25.0487 10.2216 25.0854 10.65C25.1099 10.9561 25.1834 11.2621 25.4771 11.4335C25.8444 11.6538 26.2116 11.8742 26.5666 12.1067C28.3661 13.3186 30.4349 13.9185 32.4425 14.6652C33.3238 14.9957 33.3116 14.9835 33.8869 14.2612C34.1807 13.894 34.2052 13.6369 33.8502 13.2697C33.1769 12.5964 32.4547 12.0211 31.6835 11.4824C29.7983 10.1849 27.7173 9.3402 25.5751 9.05865ZM36.8126 21.3245C37.7675 21.349 37.7674 21.3245 37.6818 20.5043C37.645 20.1248 37.4981 19.7943 37.4002 19.4393C36.9473 17.7255 36.1149 16.1831 35.0744 14.7631C34.8663 14.4816 34.6826 14.4693 34.4378 14.7264C33.8502 15.3629 33.4218 16.0485 33.7033 16.9788C33.7768 17.2481 33.7401 17.5419 33.7401 17.8357C33.7523 18.7293 33.7401 19.6229 33.8502 20.5288C33.8992 20.9083 34.0338 21.0552 34.4011 21.1164C35.258 21.2755 36.1271 21.1653 36.8126 21.3245ZM1.56981 23.6381C1.56981 25.0214 2.61033 26.0864 3.92015 26.0741C5.2667 26.0619 6.33169 25.0091 6.34394 23.6748C6.35618 22.365 5.25446 21.2388 3.95687 21.2388C2.59809 21.2388 1.56981 22.2915 1.56981 23.6381ZM43.2148 25.2539C44.4023 25.2662 45.3448 24.3236 45.3571 23.1362C45.3693 21.9733 44.4023 21.0062 43.2026 20.994C42.0886 20.9817 41.1093 21.9733 41.0971 23.1117C41.1093 24.3481 41.9907 25.2417 43.2148 25.2539ZM23.7878 41.6573C22.7351 41.6573 21.8782 42.4897 21.9027 43.4813C21.9272 44.4728 22.7963 45.3175 23.8123 45.3175C24.8161 45.3297 25.673 44.4728 25.6853 43.4568C25.6853 42.4285 24.8773 41.6573 23.7878 41.6573ZM9.09824 11.3111C9.99185 11.3111 10.6039 10.7112 10.6039 9.8421C10.6039 9.00969 9.94289 8.37314 9.07375 8.37314C8.14341 8.37314 7.56807 8.924 7.55583 9.82986C7.55583 10.7357 8.14341 11.3111 9.09824 11.3111ZM38.6611 9.25451C38.6611 8.31193 38.1469 7.76107 37.2288 7.74883C36.3475 7.73659 35.6252 8.4221 35.6375 9.24227C35.6497 10.038 36.3842 10.748 37.1921 10.748C38.049 10.748 38.6611 10.1359 38.6611 9.25451ZM35.9557 11.3845C35.8456 10.9805 35.5395 10.748 35.2825 10.5031C35.0744 10.3073 34.8785 10.5643 34.7071 10.6745C34.3521 10.9071 34.0216 11.1764 33.6788 11.4335C33.5197 11.5559 33.3238 11.7273 33.5075 11.9354C33.8257 12.3026 34.1807 12.6331 34.5357 12.9636C34.6092 13.0371 34.7316 13.0616 34.8173 12.9881C35.3069 12.523 35.613 11.9354 35.9557 11.3845ZM12.8931 12.1924C12.8196 12.1067 12.7706 12.0088 12.6849 11.9598C12.2687 11.6661 11.8525 11.3845 11.4241 11.1152C11.2527 11.005 11.0569 10.9805 10.9344 11.1519C10.7386 11.4212 10.2489 11.5926 10.3836 11.9598C10.6039 12.5597 10.9712 13.184 11.5465 13.4655C11.9627 13.6736 12.0729 12.9636 12.4034 12.7678C12.4891 12.7188 12.5503 12.6331 12.6237 12.5597C12.7217 12.4373 12.7951 12.3271 12.8931 12.1924ZM23.7756 38.9642C22.7596 38.9642 22.7596 38.9642 22.8697 39.9313C22.882 40.0782 22.882 40.2129 22.9065 40.3598C22.9554 40.5923 22.9922 40.8984 23.2859 40.9106C23.6409 40.9229 24.0327 41.0208 24.3509 40.7882C24.5223 40.678 24.7549 39.3927 24.657 39.1968C24.4366 38.7929 24.0449 39.0377 23.7756 38.9642ZM38.7712 23.2096C38.7712 24.1645 38.7835 24.2134 39.1752 24.2012C39.9342 24.1889 40.4361 23.9441 40.4361 23.5646C40.4361 22.4262 40.3014 22.2793 39.2119 22.2915C38.404 22.3038 38.9549 22.9526 38.7712 23.2096ZM8.04548 23.9196C8.04548 23.8217 8.04548 23.7115 8.04548 23.6136C8.03324 23.2953 8.10669 22.9158 7.59255 22.9403C7.15186 22.9648 6.93152 23.1729 6.96824 23.6381C6.98048 23.8829 6.96824 24.1277 6.94376 24.3603C6.93152 24.5807 7.01721 24.6908 7.21307 24.7765C7.84962 25.0581 8.05772 24.8377 8.04548 23.9196ZM13.346 35.4143C13.3582 35.2674 13.2603 35.1817 13.1746 35.096C12.9175 34.8389 12.6605 34.5818 12.3912 34.3248C12.2198 34.1534 12.0362 34.0187 11.8281 34.2636C11.62 34.4962 11.5098 34.741 11.7913 35.0103C12.0484 35.2429 12.2932 35.4755 12.5381 35.7203C12.6727 35.8549 12.8074 35.9039 12.9665 35.7937C13.1256 35.6713 13.297 35.5856 13.346 35.4143ZM22.8697 8.11607C23.1635 8.11607 23.3594 8.12831 23.5675 8.11607C23.9225 8.10383 24.0694 7.84676 23.947 7.57745C23.6165 6.89193 22.9922 7.56521 22.5392 7.33262C22.3311 7.22245 22.172 7.40607 22.1475 7.6509C22.0618 8.40986 22.6249 8.0671 22.8697 8.11607ZM34.3154 35.2429C34.3644 35.2306 34.4378 35.2306 34.4745 35.1939C34.8173 34.8512 35.1723 34.5206 35.4783 34.1534C35.613 33.9943 35.4783 33.8106 35.3437 33.6637C35.1968 33.5046 35.0499 33.5658 34.9275 33.7005C34.6337 34.0065 34.3276 34.3003 34.0338 34.6186C33.9359 34.7287 33.8869 34.8634 33.9604 35.0103C34.0338 35.1449 34.144 35.2306 34.3154 35.2429Z" fill="white"/>
<path d="M32.1243 20.4432C32.0875 22.3284 31.402 23.8218 30.3615 25.1439C29.1374 26.6863 27.7051 28.0084 26.0526 29.0979C25.7465 29.306 25.4772 29.3672 25.1589 29.1591C23.1391 27.837 21.254 26.368 19.8829 24.3115C19.0872 23.1119 18.7445 21.802 18.7078 20.3943C18.671 19.3538 18.7567 18.3132 18.6098 17.2727C18.5364 16.7831 18.8547 16.5505 19.2709 16.3791C20.7276 15.7548 22.2333 15.2284 23.5921 14.3715C23.9715 14.139 24.3633 13.9064 24.7305 13.6493C25.0733 13.4045 25.3793 13.38 25.7465 13.6126C27.3869 14.6531 29.1986 15.3508 31.0348 15.9752C31.9651 16.2934 32.0263 16.3791 32.0508 17.3707C32.0753 18.4479 31.9896 19.5251 32.1243 20.4432ZM31.3041 19.4517C31.3041 18.7784 31.2919 18.1051 31.3041 17.4319C31.3163 17.0279 31.1817 16.7831 30.7777 16.6607C28.9905 16.0853 27.2767 15.3264 25.6486 14.396C25.3915 14.2491 25.1467 14.2491 24.9019 14.4083C23.3717 15.4488 21.6946 16.1833 19.9809 16.8443C19.5769 17.0034 19.4055 17.236 19.4178 17.6645C19.4422 18.6438 19.4545 19.6231 19.4178 20.6024C19.3933 21.3736 19.5524 22.1081 19.8707 22.7936C21.0091 25.2908 23.0534 26.9312 25.2691 28.3756C25.4772 28.5103 25.6853 28.5225 25.8934 28.3756C27.901 26.9312 29.676 25.2908 30.8389 23.0629C31.4632 21.8877 31.2919 20.6636 31.3041 19.4517Z" fill="white"/>
<path d="M24.1918 24.5195C23.8123 24.5317 23.5063 24.3726 23.2492 24.1277C22.5269 23.4422 21.7925 22.7689 21.0825 22.0589C20.6295 21.606 20.6295 20.6022 21.0457 20.1493C21.5599 19.5862 22.3556 19.5495 22.9676 20.0391C23.3716 20.3696 23.7021 21.0184 24.204 20.9205C24.6202 20.8348 24.9507 20.2839 25.3057 19.9167C26.1993 18.9986 27.0562 18.0438 27.9743 17.1502C28.8068 16.3422 29.9207 16.5993 30.3492 17.6398C30.5205 18.056 30.4349 18.4233 30.19 18.7905C29.5535 19.7576 28.6354 20.4553 27.8764 21.3C27.0318 22.2426 26.1259 23.1117 25.2445 24.0176C24.963 24.3358 24.6325 24.5562 24.1918 24.5195ZM24.204 23.7727C24.5345 23.7972 24.7304 23.5891 24.9263 23.381C26.0647 22.1814 27.2031 20.9939 28.3416 19.7943C28.7088 19.4148 29.0883 19.0353 29.4433 18.6436C29.7371 18.3131 29.7983 17.9214 29.4678 17.6031C29.1495 17.2971 28.7823 17.4072 28.464 17.6521C28.3171 17.7622 28.1947 17.8969 28.06 18.0315C26.9338 19.2067 25.8076 20.3941 24.6937 21.5815C24.3264 21.9733 23.9837 22.01 23.6164 21.606C23.3226 21.2877 23.0166 20.9939 22.6983 20.7124C22.3433 20.3941 21.9394 20.2472 21.5721 20.6634C21.2294 21.0552 21.4007 21.4224 21.7313 21.7407C22.3801 22.3527 23.0411 22.9648 23.6899 23.5769C23.8368 23.7115 24.0082 23.7727 24.204 23.7727Z" fill="white"/>
</svg>
