<svg width="42" height="41" viewBox="0 0 42 41" fill="none" xmlns="http://www.w3.org/2000/svg">
<path d="M39.2932 4.76196C38.724 4.76196 38.1458 4.771 37.5767 4.76196C37.3599 4.76196 37.2334 4.81617 37.1431 5.04202C36.5197 6.55974 35.011 7.16502 33.5114 6.50553C33.3217 6.42423 33.2133 6.45133 33.0868 6.58684C32.8067 6.88496 32.5267 7.18309 32.2286 7.44507C31.9937 7.65286 31.9666 7.81547 32.1382 8.09552C33.3849 10.083 34.1618 12.2602 34.4871 14.5729C34.9478 17.9065 34.46 21.1045 33.0235 24.158C32.7706 24.7001 32.5086 25.2421 32.1653 25.739C31.9846 26.01 31.9937 26.1907 32.2376 26.4346C34.8936 29.0816 37.5406 31.7376 40.1966 34.3846C41.3981 35.5861 41.7504 37.1761 41.0729 38.5944C40.043 40.7716 37.125 41.4131 35.1736 39.4256C32.5628 36.7605 29.8978 34.1407 27.2779 31.4846C26.9978 31.2046 26.8081 31.2046 26.4829 31.3943C22.526 33.7612 18.2981 34.4297 13.8081 33.3818C7.16813 31.8189 2.08197 26.3352 1.06112 19.5688C-0.0591006 12.2512 3.48224 5.15043 10.2668 1.73556C12.7873 0.470795 15.4885 -0.116417 18.2981 0.0190936C23.3842 0.263013 27.6122 2.32277 30.8554 6.28872C31.0993 6.58684 31.2438 6.57781 31.4426 6.29775C31.4697 6.26161 31.5058 6.22548 31.542 6.19838C32.0569 5.78281 32.2918 5.40338 32.0479 4.62645C31.6233 3.27135 32.4905 1.90721 33.8005 1.50971C35.2098 1.08511 36.583 1.71749 37.134 3.0726C37.2424 3.33459 37.3689 3.40686 37.6309 3.40686C38.7602 3.39782 39.8894 3.41589 41.0187 3.39782C41.2987 3.39782 41.4071 3.46106 41.4071 3.76822C41.4071 4.76196 41.4252 4.76196 40.4224 4.75293C40.043 4.75293 39.6636 4.76196 39.2932 4.76196ZM33.2765 16.9037C33.2765 8.27621 26.248 1.15738 17.3766 1.32903C8.97494 1.49164 2.01873 8.41172 2.17231 17.2289C2.31685 25.5945 9.14659 32.6681 18.0632 32.4874C26.6094 32.3248 33.2584 25.3596 33.2765 16.9037ZM40.052 37.1761C40.043 36.5166 39.8623 36.0197 39.4648 35.6132C37.7122 33.8425 35.9415 32.0809 34.1889 30.3012C33.9902 30.1024 33.8818 30.1566 33.7192 30.3283C32.8429 31.2136 31.9666 32.099 31.0722 32.9753C30.9005 33.1469 30.9186 33.2553 31.0812 33.4089C31.4516 33.7612 31.804 34.1316 32.1653 34.493C33.5475 35.8752 34.9207 37.2664 36.3119 38.6396C37.0076 39.3262 37.92 39.4798 38.7602 39.0913C39.6184 38.7028 40.0159 38.0072 40.052 37.1761ZM31.1083 27.2567C31.0632 27.329 31.018 27.3922 30.9728 27.4464C30.1778 28.4492 29.2744 29.3616 28.2716 30.1566C28.0819 30.3102 28.091 30.4186 28.2626 30.5812C28.7504 31.051 29.2292 31.5298 29.699 32.0177C29.8707 32.1983 29.97 32.1712 30.1327 32.0086C31.009 31.1143 31.8853 30.2289 32.7796 29.3526C32.9513 29.181 32.9784 29.0726 32.7887 28.8919C32.2918 28.4131 31.813 27.9162 31.3251 27.4193C31.2619 27.3742 31.2077 27.338 31.1083 27.2567ZM34.6135 5.41241C35.3543 5.42145 35.9596 4.83424 35.9777 4.08441C35.9957 3.34362 35.4085 2.72931 34.6587 2.71124C33.936 2.69317 33.2946 3.31652 33.2855 4.03924C33.2855 4.78907 33.8818 5.40338 34.6135 5.41241Z" fill="#021443"/>
<path d="M17.6837 31.1597C9.70662 31.0784 3.51831 24.6552 3.56348 16.904C3.60865 8.83661 10.059 2.66636 17.8463 2.72057C25.7149 2.78381 32.0388 9.26121 31.9304 17.0576C31.8219 24.9985 25.4349 31.1597 17.6837 31.1597ZM4.90955 17.0757C4.94569 19.8581 5.81295 22.3877 7.50232 24.6733C10.601 28.8651 16.1118 30.7442 21.1166 29.3619C26.7087 27.8171 30.5933 22.74 30.5753 16.895C30.5662 14.8623 30.0784 12.9381 29.184 11.1132C29.0124 10.7609 28.8859 10.7609 28.642 11.0409C28.389 11.339 28.109 11.6191 27.8108 11.872C27.5669 12.0798 27.5488 12.2695 27.6663 12.5677C28.0819 13.6518 27.8921 14.6545 27.061 15.4766C26.2299 16.2987 25.2271 16.4704 24.143 16.0367C23.872 15.9283 23.7184 15.9645 23.5287 16.1632C22.2368 17.4732 20.945 18.7741 19.635 20.0659C19.4363 20.2647 19.4272 20.4092 19.5447 20.6441C19.8247 21.2042 19.8338 21.8095 19.6621 22.4057C19.2375 23.9144 17.6837 24.7365 16.2202 24.2396C14.7295 23.7337 13.9888 22.1437 14.585 20.6622C14.7024 20.364 14.6573 20.2195 14.4495 20.0117C13.6093 19.1896 12.7782 18.3585 11.9651 17.5183C11.7664 17.3196 11.6218 17.2834 11.3508 17.3918C10.1403 17.8978 8.68578 17.5364 8.12567 16.3981C7.72817 15.6031 7.22226 15.4947 6.49954 15.576C6.45437 15.585 6.4092 15.576 6.36403 15.576C4.89148 15.567 4.89148 15.567 4.90955 17.0757ZM17.4669 4.07567C15.0638 4.13891 12.8414 4.80743 10.8268 6.11737C7.95402 7.97838 6.13818 10.5892 5.27091 13.8866C5.19864 14.1577 5.29801 14.2299 5.55097 14.2209C6.12011 14.2028 6.69829 14.2028 7.26743 14.2209C7.55652 14.2299 7.7101 14.1577 7.83658 13.8595C8.43282 12.4773 9.98668 11.8359 11.3237 12.387C12.715 12.9652 13.3654 14.519 12.7872 15.9464C12.6879 16.1994 12.7059 16.3439 12.8956 16.5336C13.7629 17.3828 14.6211 18.2501 15.4794 19.1173C15.642 19.28 15.7685 19.3251 15.9853 19.2167C16.699 18.8734 17.4398 18.8734 18.1625 19.2077C18.3703 19.3071 18.5058 19.289 18.6684 19.1173C19.9783 17.7893 21.2973 16.4704 22.6253 15.1514C22.7969 14.9798 22.8421 14.8533 22.7337 14.6094C22.273 13.5795 22.5169 12.378 23.2938 11.6101C24.0978 10.8151 25.2271 10.6073 26.2931 11.0861C26.528 11.1945 26.6364 11.1313 26.79 10.9777C27.1785 10.5802 27.5669 10.1737 27.9734 9.79422C28.1903 9.59547 28.2174 9.45093 28.0277 9.19797C27.3411 8.31264 26.5822 7.50861 25.6969 6.81299C23.2667 4.95198 20.5204 4.04857 17.4669 4.07567ZM8.96583 14.8804C8.9568 15.6302 9.53498 16.2355 10.2848 16.2445C11.0256 16.2626 11.6399 15.6663 11.6489 14.9165C11.658 14.1848 11.0617 13.5614 10.3209 13.5433C9.58918 13.5433 8.97487 14.1396 8.96583 14.8804ZM15.7323 21.6649C15.7323 22.4148 16.3195 23.0201 17.0603 23.0291C17.7831 23.0291 18.4154 22.4057 18.4245 21.683C18.4335 20.9603 17.8102 20.3279 17.0784 20.3279C16.3376 20.3189 15.7414 20.9151 15.7323 21.6649ZM26.5009 13.5343C26.4919 12.7755 25.9047 12.1973 25.1548 12.2063C24.4231 12.2153 23.8178 12.8297 23.8268 13.5704C23.8359 14.3203 24.4411 14.9075 25.1819 14.8985C25.9408 14.8804 26.5099 14.2932 26.5009 13.5343Z" fill="#021443"/>
</svg>
