<svg width="52" height="38" viewBox="0 0 52 38" fill="none" xmlns="http://www.w3.org/2000/svg">
<path d="M21.2989 0.591309C26.5296 0.591309 31.7603 0.591309 36.9593 0.591309C40.1611 0.591309 42.0631 2.49337 42.0948 5.69519C42.1265 11.5599 42.1265 17.4246 42.0948 23.2576C42.0948 26.2058 40.4781 27.9811 37.5933 28.3932C37.0861 28.4566 36.5471 28.52 36.0082 28.52C26.1809 28.52 16.3852 28.52 6.5579 28.52C5.86047 28.52 5.19475 28.4249 4.49733 28.3298C2.05634 27.9811 0.471286 26.1741 0.471286 23.7014C0.439584 17.6148 0.439584 11.5599 0.471286 5.47328C0.471286 2.55678 2.40505 0.62301 5.32155 0.591309C10.6473 0.591309 15.9731 0.591309 21.2989 0.591309ZM14.5149 14.3813C14.5149 18.3439 17.3363 21.2287 21.2038 21.2287C25.0079 21.2287 27.9878 18.3122 28.0195 14.6032C28.0195 10.704 24.9762 7.66066 21.1087 7.69236C17.4948 7.72406 14.5149 10.7357 14.5149 14.3813Z" fill="white"/>
<path d="M27.3221 37.7446C21.3623 37.7446 15.3708 37.7446 9.41095 37.7446C7.31868 37.7446 7.22358 37.6178 7.19187 35.4621C7.19187 35.05 7.22358 34.6062 7.19187 34.1941C7.16017 33.1162 7.69909 32.6724 8.74523 32.7041C10.2669 32.7358 11.8202 32.7041 13.3419 32.7041C23.6448 32.7041 33.9476 32.7041 44.2505 32.7041C46.4061 32.7041 46.4378 32.6724 46.4378 30.4851C46.4378 23.5742 46.4378 16.6317 46.4695 9.72083C46.4695 8.9283 46.0891 7.81877 47.167 7.53346C48.3716 7.21645 49.6714 7.15304 50.9077 7.62856C51.3515 7.78707 51.2881 8.32598 51.2881 8.7381C51.2881 16.917 51.3198 25.1276 51.2564 33.3065C51.2564 35.4304 49.5446 37.174 47.4206 37.5544C45.3283 37.9348 43.2043 37.7446 41.0804 37.7763C36.5154 37.7446 31.9187 37.7446 27.3221 37.7446Z" fill="white"/>
</svg>
