<svg width="44" height="45" viewBox="0 0 44 45" fill="none" xmlns="http://www.w3.org/2000/svg">
<path fill-rule="evenodd" clip-rule="evenodd" d="M20.2249 0.947051C18.2858 1.38731 17.0118 2.05041 15.6659 3.32006C14.5877 4.33723 13.8658 5.35842 13.363 6.57734C12.6948 8.19822 12.6515 8.61427 12.6515 13.4356C12.6515 17.6107 12.6675 17.9239 12.8978 18.2637C13.1918 18.6975 13.9877 19.1297 14.4925 19.1297C15.0255 19.1297 15.7207 18.7098 16.0162 18.2092C16.2581 17.7997 16.2793 17.4732 16.3398 13.2415L16.4045 8.71211L16.8187 7.83742C18.8269 3.59804 24.6236 3.32304 26.9862 7.35523C27.6534 8.49405 27.7279 9.1151 27.7279 13.5403C27.7279 17.0237 27.758 17.6656 27.9385 18.046C28.2027 18.6029 28.662 18.9696 29.2285 19.0759C29.8751 19.1971 30.3041 19.0427 30.8575 18.4895L31.3515 17.9954L31.3495 13.4185C31.3474 8.34665 31.3002 7.93616 30.525 6.25847C29.0316 3.0263 25.9173 0.947957 22.3574 0.807675C21.5093 0.774287 20.7743 0.822298 20.2249 0.947051ZM0.648654 15.1283C0.296268 15.3336 0.362914 15.8301 1.20318 19.2591C1.96321 22.3612 2.72829 25.4878 5.31975 36.0826C6.02478 38.9652 6.66705 41.5622 6.7469 41.8538C7.04441 42.9407 8.18543 44.043 9.34702 44.3658C9.9836 44.5426 33.9722 44.5378 34.6096 44.3606C35.299 44.1692 36.2693 43.4748 36.6913 42.8711C37.1153 42.2644 36.8967 43.1027 40.9741 26.4414C41.5836 23.9503 42.4043 20.6018 42.7976 19.0003C43.5886 15.7802 43.6436 15.3248 43.2658 15.1225C43.1059 15.037 41.2376 14.9886 38.0894 14.9886H33.1632V16.4537C33.1632 18.1963 32.9744 18.8667 32.2525 19.6868C30.5617 21.6078 27.5429 21.1617 26.3344 18.8123C26.0404 18.2407 25.9914 17.9614 25.9417 16.5738L25.885 14.9886H22.0349H18.1849L18.1135 15.7327C18.0741 16.1419 18.0339 16.8549 18.024 17.3172C18.0036 18.2849 17.7344 18.9883 17.1142 19.6946C15.7342 21.2663 13.1931 21.2672 11.814 19.6965C11.051 18.8274 10.9104 18.3437 10.9073 16.5738L10.9045 14.9886L5.88981 14.9924C2.72519 14.995 0.791524 15.0451 0.648654 15.1283Z" fill="white"/>
</svg>
