<svg width="58" height="57" viewBox="0 0 58 57" fill="none" xmlns="http://www.w3.org/2000/svg">
<rect x="1.32732" y="0.470629" width="55.3647" height="55.3647" rx="27.6823" fill="white" stroke="#07448E" stroke-width="0.941259"/>
<mask id="path-2-outside-1_32_1505" maskUnits="userSpaceOnUse" x="15.8567" y="14" width="27" height="28" fill="black">
<rect fill="white" x="15.8567" y="14" width="27" height="28"/>
<path fill-rule="evenodd" clip-rule="evenodd" d="M21.6486 15.133C21.6034 15.206 21.5765 16.1245 21.589 17.1739C21.6123 19.1523 21.69 19.4712 22.1098 19.3102C22.2813 19.2443 22.3083 19.027 22.3083 17.7086C22.3083 16.8696 22.3379 16.1831 22.374 16.1831C22.4102 16.1831 22.8547 16.4493 23.3619 16.7747C23.8691 17.1001 24.3215 17.3663 24.3673 17.3663C24.413 17.3663 24.9893 17.0202 25.6479 16.5971C26.7343 15.8994 26.8682 15.8427 27.091 15.9876C27.9443 16.5419 29.2967 17.3663 29.3529 17.3663C29.3896 17.3663 29.9585 17.0202 30.6171 16.5971C31.6999 15.9017 31.8381 15.8431 32.0602 15.9857C33.6508 17.0066 34.2357 17.3663 34.3056 17.3663C34.3513 17.3663 34.9255 17.0215 35.5817 16.6001C36.2377 16.1788 36.8339 15.8687 36.9064 15.911C36.9789 15.9534 37.5392 16.3046 38.1513 16.6916L39.2643 17.3954L39.6302 17.1828C39.8315 17.0658 40.2624 16.7926 40.5877 16.5756L41.1793 16.181L41.2385 24.4936L41.2976 32.8062H41.5934H41.8892L41.9539 24.2285C41.9895 19.5107 42.0428 15.5516 42.0722 15.4304C42.1024 15.3068 42.0394 15.1543 41.9288 15.0825C41.7382 14.9588 41.363 15.1588 39.5762 16.3355C39.2787 16.5314 39.2582 16.5236 38.0972 15.77C37.4498 15.3497 36.8655 15.0045 36.7989 15.0028C36.7321 15.0013 36.1465 15.3432 35.4974 15.7626C34.4086 16.4661 34.2974 16.5124 34.0627 16.3593C32.8827 15.5888 31.9103 15 31.8182 15C31.7573 15 31.2031 15.3274 30.5868 15.7275C29.9705 16.1278 29.4092 16.4561 29.3394 16.4571C29.2696 16.4583 28.7057 16.1308 28.0864 15.7296C27.4669 15.3283 26.9102 15 26.8492 15C26.7881 15 26.2339 15.3274 25.6176 15.7275C25.0014 16.1278 24.4439 16.4557 24.3788 16.4566C24.3137 16.4574 23.7495 16.13 23.1249 15.729C21.9493 14.9743 21.7871 14.9088 21.6486 15.133ZM27.0014 19.5748C26.958 19.6181 26.9225 21.1058 26.9225 22.8807V26.1079L26.4197 26.1443C25.9719 26.1766 25.9169 26.213 25.9169 26.4764V26.7722L31.7284 26.8028C36.7912 26.8296 37.559 26.8105 37.6881 26.6549C37.9191 26.3767 37.6297 26.1215 37.0831 26.1215H36.6242V24.31V22.4985L34.7819 21.6866L32.9394 20.8747L32.5635 21.0928C32.3567 21.2128 31.8776 21.5148 31.4988 21.764C31.1201 22.0133 30.7652 22.2171 30.7105 22.2171C30.6557 22.2171 29.914 21.6048 29.0623 20.8565C27.6491 19.6148 27.2251 19.3511 27.0014 19.5748ZM27.6324 23.3935V26.1215H28.9339H30.2353L30.2341 24.4947L30.2331 22.8678L29.1476 21.9213C28.5508 21.4008 27.9656 20.9053 27.8474 20.8202C27.6414 20.6721 27.6324 20.7795 27.6324 23.3935ZM33.3115 23.9963V26.1215H34.6129H35.9144V24.5865V23.0514L35.5432 22.8594C35.339 22.7539 34.7533 22.4883 34.2418 22.2693L33.3115 21.8712V23.9963ZM21.6823 22.0543C21.6362 22.1005 21.5984 24.6849 21.5984 27.7976V33.4569H19.2936H16.9887L16.9121 33.7618C16.759 34.3718 16.9465 37.1497 17.1882 37.8527C17.6614 39.2292 18.805 40.5498 20.0012 41.1011C21.3535 41.7245 21.539 41.7359 29.7688 41.7022C37.166 41.6718 37.4153 41.6634 38.1325 41.4215C40.4481 40.6407 41.9354 38.6285 41.9455 36.2632C41.9476 35.7598 41.901 35.561 41.7693 35.5105C41.4394 35.3838 41.2715 35.6886 41.2117 36.5228C41.1082 37.9701 40.2561 39.3887 39.0099 40.1883C36.6646 41.6933 33.5883 40.5785 32.4699 37.8184C32.2602 37.3009 32.1995 36.8452 32.141 35.3499L32.0692 33.5161L27.2183 33.4569L22.3675 33.3977L22.3083 27.7187C22.25 22.114 22.2459 22.0392 22.0077 22.0051C21.8748 21.9861 21.7284 22.0083 21.6823 22.0543ZM31.803 22.4519L31.0635 22.921V24.5213V26.1215H31.8325H32.6016V24.051C32.6016 22.9122 32.5882 21.981 32.572 21.9817C32.5558 21.9823 32.2097 22.1938 31.803 22.4519ZM31.2935 28.2C31.0304 28.517 29.8834 31.5525 29.9556 31.7406C29.9932 31.8386 30.1493 31.9188 30.3024 31.9188C30.5246 31.9188 30.6093 31.8235 30.7225 31.4456L30.8644 30.9723H31.6559H32.4474L32.6333 31.4456C32.7684 31.7896 32.8874 31.9188 33.069 31.9188C33.2064 31.9188 33.351 31.8352 33.3901 31.733C33.4848 31.4866 32.1596 28.1701 31.9316 28.0826C31.6392 27.9705 31.4561 28.0041 31.2935 28.2ZM33.8636 28.0934C33.7071 28.2499 33.7919 28.5078 34.1988 29.112C34.4266 29.4502 34.6129 29.7924 34.6129 29.8724C34.6129 29.9523 34.3982 30.3501 34.1357 30.7562C33.6238 31.548 33.5827 31.8388 33.9746 31.895C34.1591 31.9215 34.335 31.7651 34.6734 31.2739C34.9221 30.9128 35.1566 30.6176 35.1945 30.618C35.2325 30.6183 35.45 30.9109 35.6777 31.2681C35.9781 31.7393 36.1649 31.9178 36.358 31.9182C36.772 31.9192 36.6956 31.4514 36.1468 30.6253L35.6696 29.9067L36.1546 29.1923C36.6701 28.4331 36.7172 28.0959 36.3157 28.0381C36.1263 28.0111 35.9759 28.1559 35.6707 28.6593C35.4519 29.0205 35.2433 29.3159 35.2071 29.3159C35.171 29.3159 34.9663 29.0231 34.7523 28.6652C34.3919 28.0626 34.0891 27.8679 33.8636 28.0934ZM26.8934 28.2807C26.7756 28.6013 26.9494 28.7244 27.5205 28.7244H28.0988L28.1318 30.292L28.1648 31.8597H28.4606H28.7564L28.7894 30.292L28.8224 28.7244H29.3277C29.8675 28.7244 30.1377 28.5609 30.0359 28.2958C29.9498 28.0713 26.9758 28.057 26.8934 28.2807ZM31.3889 29.5933C31.2749 29.94 31.1818 30.2591 31.1818 30.3023C31.1818 30.3454 31.3948 30.3808 31.6551 30.3808C31.9245 30.3808 32.1283 30.3238 32.1283 30.2487C32.1283 30.0539 31.7279 28.9609 31.6568 28.9618C31.6234 28.9623 31.5028 29.2465 31.3889 29.5933ZM17.6941 35.1724V36.1781H24.5563H31.4184V35.1724V34.1668H24.5563H17.6941V35.1724ZM17.8476 37.4146C17.8841 37.6392 18.0559 38.0651 18.2293 38.3611L18.5447 38.8993H25.3233H32.1019L31.8221 38.219C31.6683 37.8449 31.5411 37.419 31.5396 37.2725L31.5368 37.0063H24.6591H17.7814L17.8476 37.4146ZM19.5279 39.9091C19.9799 40.28 20.7366 40.6378 21.3865 40.7877C21.6867 40.8571 24.3842 40.9045 27.9873 40.904L34.0805 40.9032L33.7258 40.6407C33.5308 40.4963 33.2025 40.2051 32.9963 39.9937L32.6213 39.6092L25.8971 39.6135L19.173 39.6177L19.5279 39.9091Z"/>
</mask>
<path fill-rule="evenodd" clip-rule="evenodd" d="M21.6486 15.133C21.6034 15.206 21.5765 16.1245 21.589 17.1739C21.6123 19.1523 21.69 19.4712 22.1098 19.3102C22.2813 19.2443 22.3083 19.027 22.3083 17.7086C22.3083 16.8696 22.3379 16.1831 22.374 16.1831C22.4102 16.1831 22.8547 16.4493 23.3619 16.7747C23.8691 17.1001 24.3215 17.3663 24.3673 17.3663C24.413 17.3663 24.9893 17.0202 25.6479 16.5971C26.7343 15.8994 26.8682 15.8427 27.091 15.9876C27.9443 16.5419 29.2967 17.3663 29.3529 17.3663C29.3896 17.3663 29.9585 17.0202 30.6171 16.5971C31.6999 15.9017 31.8381 15.8431 32.0602 15.9857C33.6508 17.0066 34.2357 17.3663 34.3056 17.3663C34.3513 17.3663 34.9255 17.0215 35.5817 16.6001C36.2377 16.1788 36.8339 15.8687 36.9064 15.911C36.9789 15.9534 37.5392 16.3046 38.1513 16.6916L39.2643 17.3954L39.6302 17.1828C39.8315 17.0658 40.2624 16.7926 40.5877 16.5756L41.1793 16.181L41.2385 24.4936L41.2976 32.8062H41.5934H41.8892L41.9539 24.2285C41.9895 19.5107 42.0428 15.5516 42.0722 15.4304C42.1024 15.3068 42.0394 15.1543 41.9288 15.0825C41.7382 14.9588 41.363 15.1588 39.5762 16.3355C39.2787 16.5314 39.2582 16.5236 38.0972 15.77C37.4498 15.3497 36.8655 15.0045 36.7989 15.0028C36.7321 15.0013 36.1465 15.3432 35.4974 15.7626C34.4086 16.4661 34.2974 16.5124 34.0627 16.3593C32.8827 15.5888 31.9103 15 31.8182 15C31.7573 15 31.2031 15.3274 30.5868 15.7275C29.9705 16.1278 29.4092 16.4561 29.3394 16.4571C29.2696 16.4583 28.7057 16.1308 28.0864 15.7296C27.4669 15.3283 26.9102 15 26.8492 15C26.7881 15 26.2339 15.3274 25.6176 15.7275C25.0014 16.1278 24.4439 16.4557 24.3788 16.4566C24.3137 16.4574 23.7495 16.13 23.1249 15.729C21.9493 14.9743 21.7871 14.9088 21.6486 15.133ZM27.0014 19.5748C26.958 19.6181 26.9225 21.1058 26.9225 22.8807V26.1079L26.4197 26.1443C25.9719 26.1766 25.9169 26.213 25.9169 26.4764V26.7722L31.7284 26.8028C36.7912 26.8296 37.559 26.8105 37.6881 26.6549C37.9191 26.3767 37.6297 26.1215 37.0831 26.1215H36.6242V24.31V22.4985L34.7819 21.6866L32.9394 20.8747L32.5635 21.0928C32.3567 21.2128 31.8776 21.5148 31.4988 21.764C31.1201 22.0133 30.7652 22.2171 30.7105 22.2171C30.6557 22.2171 29.914 21.6048 29.0623 20.8565C27.6491 19.6148 27.2251 19.3511 27.0014 19.5748ZM27.6324 23.3935V26.1215H28.9339H30.2353L30.2341 24.4947L30.2331 22.8678L29.1476 21.9213C28.5508 21.4008 27.9656 20.9053 27.8474 20.8202C27.6414 20.6721 27.6324 20.7795 27.6324 23.3935ZM33.3115 23.9963V26.1215H34.6129H35.9144V24.5865V23.0514L35.5432 22.8594C35.339 22.7539 34.7533 22.4883 34.2418 22.2693L33.3115 21.8712V23.9963ZM21.6823 22.0543C21.6362 22.1005 21.5984 24.6849 21.5984 27.7976V33.4569H19.2936H16.9887L16.9121 33.7618C16.759 34.3718 16.9465 37.1497 17.1882 37.8527C17.6614 39.2292 18.805 40.5498 20.0012 41.1011C21.3535 41.7245 21.539 41.7359 29.7688 41.7022C37.166 41.6718 37.4153 41.6634 38.1325 41.4215C40.4481 40.6407 41.9354 38.6285 41.9455 36.2632C41.9476 35.7598 41.901 35.561 41.7693 35.5105C41.4394 35.3838 41.2715 35.6886 41.2117 36.5228C41.1082 37.9701 40.2561 39.3887 39.0099 40.1883C36.6646 41.6933 33.5883 40.5785 32.4699 37.8184C32.2602 37.3009 32.1995 36.8452 32.141 35.3499L32.0692 33.5161L27.2183 33.4569L22.3675 33.3977L22.3083 27.7187C22.25 22.114 22.2459 22.0392 22.0077 22.0051C21.8748 21.9861 21.7284 22.0083 21.6823 22.0543ZM31.803 22.4519L31.0635 22.921V24.5213V26.1215H31.8325H32.6016V24.051C32.6016 22.9122 32.5882 21.981 32.572 21.9817C32.5558 21.9823 32.2097 22.1938 31.803 22.4519ZM31.2935 28.2C31.0304 28.517 29.8834 31.5525 29.9556 31.7406C29.9932 31.8386 30.1493 31.9188 30.3024 31.9188C30.5246 31.9188 30.6093 31.8235 30.7225 31.4456L30.8644 30.9723H31.6559H32.4474L32.6333 31.4456C32.7684 31.7896 32.8874 31.9188 33.069 31.9188C33.2064 31.9188 33.351 31.8352 33.3901 31.733C33.4848 31.4866 32.1596 28.1701 31.9316 28.0826C31.6392 27.9705 31.4561 28.0041 31.2935 28.2ZM33.8636 28.0934C33.7071 28.2499 33.7919 28.5078 34.1988 29.112C34.4266 29.4502 34.6129 29.7924 34.6129 29.8724C34.6129 29.9523 34.3982 30.3501 34.1357 30.7562C33.6238 31.548 33.5827 31.8388 33.9746 31.895C34.1591 31.9215 34.335 31.7651 34.6734 31.2739C34.9221 30.9128 35.1566 30.6176 35.1945 30.618C35.2325 30.6183 35.45 30.9109 35.6777 31.2681C35.9781 31.7393 36.1649 31.9178 36.358 31.9182C36.772 31.9192 36.6956 31.4514 36.1468 30.6253L35.6696 29.9067L36.1546 29.1923C36.6701 28.4331 36.7172 28.0959 36.3157 28.0381C36.1263 28.0111 35.9759 28.1559 35.6707 28.6593C35.4519 29.0205 35.2433 29.3159 35.2071 29.3159C35.171 29.3159 34.9663 29.0231 34.7523 28.6652C34.3919 28.0626 34.0891 27.8679 33.8636 28.0934ZM26.8934 28.2807C26.7756 28.6013 26.9494 28.7244 27.5205 28.7244H28.0988L28.1318 30.292L28.1648 31.8597H28.4606H28.7564L28.7894 30.292L28.8224 28.7244H29.3277C29.8675 28.7244 30.1377 28.5609 30.0359 28.2958C29.9498 28.0713 26.9758 28.057 26.8934 28.2807ZM31.3889 29.5933C31.2749 29.94 31.1818 30.2591 31.1818 30.3023C31.1818 30.3454 31.3948 30.3808 31.6551 30.3808C31.9245 30.3808 32.1283 30.3238 32.1283 30.2487C32.1283 30.0539 31.7279 28.9609 31.6568 28.9618C31.6234 28.9623 31.5028 29.2465 31.3889 29.5933ZM17.6941 35.1724V36.1781H24.5563H31.4184V35.1724V34.1668H24.5563H17.6941V35.1724ZM17.8476 37.4146C17.8841 37.6392 18.0559 38.0651 18.2293 38.3611L18.5447 38.8993H25.3233H32.1019L31.8221 38.219C31.6683 37.8449 31.5411 37.419 31.5396 37.2725L31.5368 37.0063H24.6591H17.7814L17.8476 37.4146ZM19.5279 39.9091C19.9799 40.28 20.7366 40.6378 21.3865 40.7877C21.6867 40.8571 24.3842 40.9045 27.9873 40.904L34.0805 40.9032L33.7258 40.6407C33.5308 40.4963 33.2025 40.2051 32.9963 39.9937L32.6213 39.6092L25.8971 39.6135L19.173 39.6177L19.5279 39.9091Z" fill="#002970"/>
<path fill-rule="evenodd" clip-rule="evenodd" d="M21.6486 15.133C21.6034 15.206 21.5765 16.1245 21.589 17.1739C21.6123 19.1523 21.69 19.4712 22.1098 19.3102C22.2813 19.2443 22.3083 19.027 22.3083 17.7086C22.3083 16.8696 22.3379 16.1831 22.374 16.1831C22.4102 16.1831 22.8547 16.4493 23.3619 16.7747C23.8691 17.1001 24.3215 17.3663 24.3673 17.3663C24.413 17.3663 24.9893 17.0202 25.6479 16.5971C26.7343 15.8994 26.8682 15.8427 27.091 15.9876C27.9443 16.5419 29.2967 17.3663 29.3529 17.3663C29.3896 17.3663 29.9585 17.0202 30.6171 16.5971C31.6999 15.9017 31.8381 15.8431 32.0602 15.9857C33.6508 17.0066 34.2357 17.3663 34.3056 17.3663C34.3513 17.3663 34.9255 17.0215 35.5817 16.6001C36.2377 16.1788 36.8339 15.8687 36.9064 15.911C36.9789 15.9534 37.5392 16.3046 38.1513 16.6916L39.2643 17.3954L39.6302 17.1828C39.8315 17.0658 40.2624 16.7926 40.5877 16.5756L41.1793 16.181L41.2385 24.4936L41.2976 32.8062H41.5934H41.8892L41.9539 24.2285C41.9895 19.5107 42.0428 15.5516 42.0722 15.4304C42.1024 15.3068 42.0394 15.1543 41.9288 15.0825C41.7382 14.9588 41.363 15.1588 39.5762 16.3355C39.2787 16.5314 39.2582 16.5236 38.0972 15.77C37.4498 15.3497 36.8655 15.0045 36.7989 15.0028C36.7321 15.0013 36.1465 15.3432 35.4974 15.7626C34.4086 16.4661 34.2974 16.5124 34.0627 16.3593C32.8827 15.5888 31.9103 15 31.8182 15C31.7573 15 31.2031 15.3274 30.5868 15.7275C29.9705 16.1278 29.4092 16.4561 29.3394 16.4571C29.2696 16.4583 28.7057 16.1308 28.0864 15.7296C27.4669 15.3283 26.9102 15 26.8492 15C26.7881 15 26.2339 15.3274 25.6176 15.7275C25.0014 16.1278 24.4439 16.4557 24.3788 16.4566C24.3137 16.4574 23.7495 16.13 23.1249 15.729C21.9493 14.9743 21.7871 14.9088 21.6486 15.133ZM27.0014 19.5748C26.958 19.6181 26.9225 21.1058 26.9225 22.8807V26.1079L26.4197 26.1443C25.9719 26.1766 25.9169 26.213 25.9169 26.4764V26.7722L31.7284 26.8028C36.7912 26.8296 37.559 26.8105 37.6881 26.6549C37.9191 26.3767 37.6297 26.1215 37.0831 26.1215H36.6242V24.31V22.4985L34.7819 21.6866L32.9394 20.8747L32.5635 21.0928C32.3567 21.2128 31.8776 21.5148 31.4988 21.764C31.1201 22.0133 30.7652 22.2171 30.7105 22.2171C30.6557 22.2171 29.914 21.6048 29.0623 20.8565C27.6491 19.6148 27.2251 19.3511 27.0014 19.5748ZM27.6324 23.3935V26.1215H28.9339H30.2353L30.2341 24.4947L30.2331 22.8678L29.1476 21.9213C28.5508 21.4008 27.9656 20.9053 27.8474 20.8202C27.6414 20.6721 27.6324 20.7795 27.6324 23.3935ZM33.3115 23.9963V26.1215H34.6129H35.9144V24.5865V23.0514L35.5432 22.8594C35.339 22.7539 34.7533 22.4883 34.2418 22.2693L33.3115 21.8712V23.9963ZM21.6823 22.0543C21.6362 22.1005 21.5984 24.6849 21.5984 27.7976V33.4569H19.2936H16.9887L16.9121 33.7618C16.759 34.3718 16.9465 37.1497 17.1882 37.8527C17.6614 39.2292 18.805 40.5498 20.0012 41.1011C21.3535 41.7245 21.539 41.7359 29.7688 41.7022C37.166 41.6718 37.4153 41.6634 38.1325 41.4215C40.4481 40.6407 41.9354 38.6285 41.9455 36.2632C41.9476 35.7598 41.901 35.561 41.7693 35.5105C41.4394 35.3838 41.2715 35.6886 41.2117 36.5228C41.1082 37.9701 40.2561 39.3887 39.0099 40.1883C36.6646 41.6933 33.5883 40.5785 32.4699 37.8184C32.2602 37.3009 32.1995 36.8452 32.141 35.3499L32.0692 33.5161L27.2183 33.4569L22.3675 33.3977L22.3083 27.7187C22.25 22.114 22.2459 22.0392 22.0077 22.0051C21.8748 21.9861 21.7284 22.0083 21.6823 22.0543ZM31.803 22.4519L31.0635 22.921V24.5213V26.1215H31.8325H32.6016V24.051C32.6016 22.9122 32.5882 21.981 32.572 21.9817C32.5558 21.9823 32.2097 22.1938 31.803 22.4519ZM31.2935 28.2C31.0304 28.517 29.8834 31.5525 29.9556 31.7406C29.9932 31.8386 30.1493 31.9188 30.3024 31.9188C30.5246 31.9188 30.6093 31.8235 30.7225 31.4456L30.8644 30.9723H31.6559H32.4474L32.6333 31.4456C32.7684 31.7896 32.8874 31.9188 33.069 31.9188C33.2064 31.9188 33.351 31.8352 33.3901 31.733C33.4848 31.4866 32.1596 28.1701 31.9316 28.0826C31.6392 27.9705 31.4561 28.0041 31.2935 28.2ZM33.8636 28.0934C33.7071 28.2499 33.7919 28.5078 34.1988 29.112C34.4266 29.4502 34.6129 29.7924 34.6129 29.8724C34.6129 29.9523 34.3982 30.3501 34.1357 30.7562C33.6238 31.548 33.5827 31.8388 33.9746 31.895C34.1591 31.9215 34.335 31.7651 34.6734 31.2739C34.9221 30.9128 35.1566 30.6176 35.1945 30.618C35.2325 30.6183 35.45 30.9109 35.6777 31.2681C35.9781 31.7393 36.1649 31.9178 36.358 31.9182C36.772 31.9192 36.6956 31.4514 36.1468 30.6253L35.6696 29.9067L36.1546 29.1923C36.6701 28.4331 36.7172 28.0959 36.3157 28.0381C36.1263 28.0111 35.9759 28.1559 35.6707 28.6593C35.4519 29.0205 35.2433 29.3159 35.2071 29.3159C35.171 29.3159 34.9663 29.0231 34.7523 28.6652C34.3919 28.0626 34.0891 27.8679 33.8636 28.0934ZM26.8934 28.2807C26.7756 28.6013 26.9494 28.7244 27.5205 28.7244H28.0988L28.1318 30.292L28.1648 31.8597H28.4606H28.7564L28.7894 30.292L28.8224 28.7244H29.3277C29.8675 28.7244 30.1377 28.5609 30.0359 28.2958C29.9498 28.0713 26.9758 28.057 26.8934 28.2807ZM31.3889 29.5933C31.2749 29.94 31.1818 30.2591 31.1818 30.3023C31.1818 30.3454 31.3948 30.3808 31.6551 30.3808C31.9245 30.3808 32.1283 30.3238 32.1283 30.2487C32.1283 30.0539 31.7279 28.9609 31.6568 28.9618C31.6234 28.9623 31.5028 29.2465 31.3889 29.5933ZM17.6941 35.1724V36.1781H24.5563H31.4184V35.1724V34.1668H24.5563H17.6941V35.1724ZM17.8476 37.4146C17.8841 37.6392 18.0559 38.0651 18.2293 38.3611L18.5447 38.8993H25.3233H32.1019L31.8221 38.219C31.6683 37.8449 31.5411 37.419 31.5396 37.2725L31.5368 37.0063H24.6591H17.7814L17.8476 37.4146ZM19.5279 39.9091C19.9799 40.28 20.7366 40.6378 21.3865 40.7877C21.6867 40.8571 24.3842 40.9045 27.9873 40.904L34.0805 40.9032L33.7258 40.6407C33.5308 40.4963 33.2025 40.2051 32.9963 39.9937L32.6213 39.6092L25.8971 39.6135L19.173 39.6177L19.5279 39.9091Z" stroke="#002970" stroke-width="0.2" mask="url(#path-2-outside-1_32_1505)"/>
</svg>
