<svg width="37" height="37" viewBox="0 0 37 37" fill="none" xmlns="http://www.w3.org/2000/svg">
<g clip-path="url(#clip0_32_1467)">
<path d="M18.8567 36.4253C28.7978 36.4253 36.8567 28.3664 36.8567 18.4253C36.8567 8.48417 28.7978 0.425293 18.8567 0.425293C8.91556 0.425293 0.856689 8.48417 0.856689 18.4253C0.856689 28.3664 8.91556 36.4253 18.8567 36.4253Z" fill="#007AB9"/>
<path d="M29.6118 19.8739V27.2949H25.3093V20.3713C25.3093 18.6328 24.6881 17.4456 23.1303 17.4456C21.9415 17.4456 21.2353 18.2449 20.9234 19.0188C20.8101 19.2954 20.7809 19.6795 20.7809 20.0674V27.2946H16.4781C16.4781 27.2946 16.5359 15.5682 16.4781 14.3544H20.7812V16.1881C20.7726 16.2025 20.7604 16.2167 20.7527 16.2305H20.7812V16.1881C21.353 15.3083 22.3727 14.0505 24.6589 14.0505C27.4896 14.0505 29.6118 15.9 29.6118 19.8739ZM11.977 8.1167C10.5052 8.1167 9.54224 9.08283 9.54224 10.3522C9.54224 11.5946 10.4772 12.5886 11.9205 12.5886H11.9484C13.4491 12.5886 14.3822 11.5946 14.3822 10.3522C14.3536 9.08283 13.4491 8.1167 11.977 8.1167ZM9.79797 27.2949H14.0992V14.3544H9.79797V27.2949Z" fill="#F1F2F2"/>
</g>
<defs>
<clipPath id="clip0_32_1467">
<rect width="36" height="36" fill="white" transform="translate(0.856689 0.425781)"/>
</clipPath>
</defs>
</svg>
