<svg width="73" height="62" viewBox="0 0 73 62" fill="none" xmlns="http://www.w3.org/2000/svg">
<path d="M72.299 26.6191C72.299 34.7108 72.299 42.8025 72.299 50.8942C72.299 52.0233 72.2425 52.0986 71.057 52.0986C60.9894 52.0986 50.9218 52.0986 40.8542 52.0986C36.2814 52.0986 31.6898 52.0986 27.1171 52.0798C25.781 52.0798 25.781 52.0609 25.781 50.6872C25.781 48.7678 25.7622 46.8672 25.781 44.9478C25.781 43.9504 25.8939 43.9128 26.816 44.3644C34.5125 48.0715 41.8515 47.4505 48.6636 42.3132C52.3519 39.5282 54.6289 35.6893 55.6074 31.1354C56.8494 25.4335 55.8709 20.1269 52.5213 15.3848C49.0776 10.4921 44.3167 7.6694 38.3326 6.97313C34.2491 6.50269 30.429 7.33068 26.7783 9.17484C25.8939 9.62647 25.7622 9.55119 25.7622 8.55384C25.7622 6.38978 25.781 4.22571 25.7433 2.06165C25.7245 1.19602 26.1009 0.838483 26.9101 0.932573C29.6198 1.23366 32.3484 0.970208 35.0771 0.989026C38.0691 1.00784 41.08 1.17721 44.0908 0.932573C45.2576 0.838483 46.4055 1.12075 47.5722 1.02666C50.489 0.800847 53.3869 1.00784 56.3037 0.989026C59.0888 0.970208 61.8738 0.838483 64.6589 1.02666C66.7853 1.17721 68.9117 0.782029 71.0382 1.02666C72.2425 1.15839 72.2613 1.08312 72.2613 2.36274C72.299 10.4356 72.299 18.5274 72.299 26.6191ZM60.4436 7.10486C57.9597 7.10486 55.4945 7.10486 53.0106 7.08604C52.4084 7.08604 51.9567 7.16131 51.9567 7.93285C51.9567 8.68557 52.3896 8.79848 52.9917 8.79848C57.8844 8.77966 62.7771 8.77966 67.6697 8.77966C68.2531 8.77966 68.7235 8.7232 68.7235 7.95167C68.7235 7.18013 68.2907 7.10486 67.6886 7.10486C65.261 7.12368 62.8523 7.10486 60.4436 7.10486ZM60.2743 45.6817C62.7394 45.7005 65.2234 45.6817 67.6886 45.7005C68.366 45.7005 68.7988 45.5311 68.6859 44.7408C68.5918 44.101 68.1026 44.1762 67.6886 44.1762C62.7959 44.1762 57.922 44.1762 53.0294 44.1574C52.446 44.1574 51.9567 44.195 51.9756 44.9854C51.9944 45.7569 52.5401 45.6817 53.0482 45.6817C55.4569 45.6817 57.8656 45.6817 60.2743 45.6817ZM65.8068 14.2745C66.5595 14.2933 67.3122 14.1804 68.0461 14.0863C68.5165 14.0299 68.6671 13.7664 68.6671 13.3148C68.6671 12.882 68.5354 12.5809 68.0461 12.5621C67.4627 12.5244 66.8606 12.4115 66.2772 12.4303C64.9035 12.4492 63.5298 12.5997 62.1561 12.5244C60.6506 12.4303 59.164 12.3927 57.6586 12.5432C57.1693 12.5997 56.7177 12.5809 56.6989 13.2771C56.6801 13.9922 57.1129 14.011 57.6586 14.1051C60.3684 14.5191 63.097 13.7476 65.8068 14.2745ZM62.6077 19.5059C64.2637 19.5059 65.9197 19.5059 67.5756 19.5059C68.159 19.5059 68.5354 19.3742 68.5354 18.6779C68.5354 18.0005 68.1966 17.8311 67.5945 17.8311C64.2825 17.8499 60.9706 17.8499 57.6398 17.8311C57.0564 17.8311 56.6989 17.9628 56.6989 18.6591C56.6989 19.3553 57.0376 19.5059 57.6398 19.5059C59.2957 19.4871 60.9517 19.4871 62.6077 19.5059ZM63.718 24.7749C64.9976 24.7749 66.296 24.7373 67.5756 24.7749C68.4601 24.8126 68.6671 24.3045 68.6483 23.6082C68.6295 22.8179 68.0273 22.9872 67.5568 22.9872C66.9358 23.006 66.296 23.1001 65.675 23.0625C63.7744 22.9308 61.855 22.9496 59.9544 23.0625C59.3522 23.1001 59.1264 23.3448 59.1264 23.9281C59.1076 24.5491 59.3898 24.7749 59.9732 24.7561C61.2152 24.7749 62.476 24.7749 63.718 24.7749ZM63.9626 35.1436C65.2234 35.1624 66.4654 35.1436 67.7262 35.1624C68.3096 35.1624 68.7047 35.0495 68.6859 34.3533C68.6859 33.6946 68.3848 33.4688 67.7638 33.4688C65.1858 33.4876 62.6265 33.4876 60.0485 33.4688C59.4275 33.4688 59.1264 33.657 59.1264 34.3344C59.1264 35.0495 59.5404 35.1436 60.1049 35.1436C61.3845 35.1248 62.6642 35.1436 63.9626 35.1436ZM63.9061 40.5632C65.1293 40.5632 66.3525 40.5632 67.5756 40.582C68.159 40.582 68.5542 40.4879 68.5542 39.7728C68.5542 39.0954 68.2343 38.9072 67.6321 38.9072C65.1293 38.926 62.6265 38.9072 60.1237 38.9072C59.5404 38.9072 59.164 39.0201 59.1452 39.7352C59.1264 40.5067 59.5592 40.6008 60.1614 40.582C61.4034 40.5444 62.6453 40.5632 63.9061 40.5632ZM63.7932 30.0816C63.7932 30.0628 63.7932 30.0628 63.7932 30.0816C65.1105 30.0816 66.4089 30.0628 67.7262 30.0816C68.3472 30.0816 68.5354 29.7617 68.5354 29.1971C68.5354 28.6326 68.2719 28.4256 67.7262 28.4256C65.167 28.4444 62.6077 28.4444 60.0485 28.4256C59.4275 28.4256 59.1264 28.6702 59.1452 29.31C59.1452 29.9499 59.5216 30.0816 60.0485 30.0816C61.2905 30.0628 62.5513 30.0816 63.7932 30.0816Z" fill="white"/>
<path d="M36.2813 9.36281C40.7412 9.17463 44.6742 10.8682 47.9673 13.9732C51.5051 17.3228 53.2551 21.5192 53.274 26.4119C53.2928 33.6568 48.8141 39.9984 42.3031 42.4448C36.9588 44.4395 31.8403 43.9502 27.0041 40.9581C26.3643 40.563 25.9315 40.5441 25.4046 41.1275C24.0873 42.52 22.7136 43.8373 21.3587 45.1922C20.5119 46.039 20.4366 46.039 19.5522 45.1545C18.7242 44.3266 17.9338 43.4797 17.087 42.7082C16.5413 42.2189 16.5225 41.8802 17.0682 41.3533C18.536 39.942 19.9474 38.4554 21.4152 37.044C21.9232 36.5547 21.9421 36.1972 21.5845 35.595C18.536 30.6271 18.1785 25.3204 20.192 19.9761C21.7727 15.7797 24.8212 12.7312 28.9423 10.8306C31.4075 9.68271 33.007 9.36281 36.2813 9.36281ZM36.1684 12.9382C28.8671 13.1828 22.7512 18.5836 22.7136 26.3366C22.676 33.7509 28.3778 39.6785 35.8673 39.7538C43.7333 39.8479 49.4915 33.8261 49.4727 26.4119C49.4727 18.5836 43.4133 13.3146 36.1684 12.9382Z" fill="white"/>
<path d="M20.1544 48.5796C20.1544 49.6711 19.7404 50.612 18.9876 51.3647C15.7698 54.5826 12.5331 57.7628 9.2964 60.943C9.14586 61.0936 8.9765 61.2441 8.82596 61.3947C8.2426 62.0345 7.75333 61.9968 7.13234 61.3382C5.13764 59.2682 3.06766 57.2359 1.03532 55.2036C0.244971 54.4132 0.244971 54.2062 1.01651 53.4347C4.46019 50.0474 7.88506 46.6602 11.3476 43.2918C12.7589 41.9181 15.1488 41.9369 16.5601 43.2918C17.4069 44.0821 18.2161 44.929 19.0253 45.7569C19.7968 46.5473 20.1544 47.507 20.1544 48.5796Z" fill="white"/>
<path d="M32.706 36.0842C32.1791 36.103 31.8027 35.8584 31.5016 35.4632C29.9209 33.3556 28.3402 31.2668 26.7783 29.1404C26.2138 28.3689 26.3079 27.6538 26.9477 27.1269C27.5499 26.6376 28.3402 26.7129 28.9236 27.4468C29.7516 28.463 30.4855 29.5544 31.2758 30.6082C31.4828 30.8905 31.7275 31.1351 31.9345 31.3986C32.3861 31.9631 32.7248 31.8502 33.0635 31.2668C34.3996 28.8205 35.7545 26.393 37.1094 23.9466C38.2761 21.839 39.4052 19.7126 40.5907 17.605C41.1741 16.57 42.3032 16.5136 42.9806 17.398C43.4322 17.9814 43.2064 18.5271 42.9053 19.054C41.5504 21.5379 40.2144 24.0031 38.8595 26.4871C37.2976 29.3098 35.7357 32.1325 34.1738 34.9551C33.8727 35.5573 33.4775 36.0654 32.706 36.0842Z" fill="white"/>
</svg>
