<svg width="58" height="58" viewBox="0 0 58 58" fill="none" xmlns="http://www.w3.org/2000/svg">
<path fill-rule="evenodd" clip-rule="evenodd" d="M25.5821 1.55053C24.6596 1.98008 23.2546 3.10163 21.8919 4.49655L19.6916 6.7488L16.2965 6.93833C12.2954 7.16152 10.9589 7.64923 9.01223 9.59592C7.09623 11.5116 6.60735 12.8437 6.36704 16.8017L6.16304 20.1578L3.84702 22.4336C1.09732 25.1358 0.370192 26.5337 0.361041 29.1346C0.351889 31.7656 1.13925 33.2996 3.88983 36.0085L6.16451 38.2487L6.36645 41.5758C6.60764 45.5439 7.15233 46.9678 9.18641 48.9455C10.9698 50.6796 12.6694 51.2671 16.5918 51.5053L19.6916 51.694L21.8089 53.8786C24.352 56.5026 26.2868 57.5276 28.6959 57.5276C31.0818 57.5276 32.8913 56.5613 35.5034 53.8916L37.7001 51.6465L41.0952 51.4516C45.096 51.2219 46.4363 50.7319 48.3795 48.7884C50.3333 46.8349 50.8847 45.3414 51.066 41.5127L51.2186 38.2965L53.4972 36.0322C56.2386 33.3079 57.0372 31.7565 57.0372 29.1541C57.0372 26.666 56.274 25.1884 53.4768 22.2589L51.2175 19.8927L51.0445 16.7261C50.8387 12.9606 50.2981 11.5146 48.3795 9.59592C46.408 7.62443 45.0884 7.13908 41.0149 6.88814L37.5416 6.6744L35.7579 4.66246C32.5503 1.04452 29.0002 -0.0413083 25.5821 1.55053ZM37.7001 19.113C37.213 19.4138 35.7608 20.7751 34.4731 22.1381C29.2668 27.6485 25.4242 31.5539 25.209 31.5539C25.0835 31.5539 23.8025 30.3571 22.3625 28.8946C19.4117 25.8975 18.2964 25.3333 16.4967 25.9273C15.9157 26.1192 15.035 26.7374 14.54 27.3016C13.7697 28.179 13.6395 28.5616 13.6395 29.9509V31.5743L16.2224 34.2951C22.2497 40.6435 23.2263 41.5357 24.3906 41.7539C26.7356 42.1937 27.135 41.8858 35.3505 33.3049C39.5653 28.9023 43.1756 25.0133 43.3728 24.6629C43.57 24.3124 43.7359 23.4404 43.7418 22.725C43.7663 19.6683 40.2281 17.5527 37.7001 19.113Z" fill="white"/>
</svg>
