<svg width="37" height="37" viewBox="0 0 37 37" fill="none" xmlns="http://www.w3.org/2000/svg">
<g clip-path="url(#clip0_32_1462)">
<path d="M18.8565 36.4255C28.7976 36.4255 36.8564 28.3667 36.8564 18.4256C36.8564 8.48458 28.7976 0.425781 18.8565 0.425781C8.91549 0.425781 0.856689 8.48458 0.856689 18.4256C0.856689 28.3667 8.91549 36.4255 18.8565 36.4255Z" fill="#55ACEE"/>
<path d="M29.8824 13.3618C29.1111 13.7039 28.2813 13.9352 27.4111 14.0385C28.2996 13.5062 28.9814 12.664 29.3033 11.6587C28.4719 12.1519 27.5507 12.5096 26.5711 12.7025C25.7863 11.8666 24.6681 11.3442 23.4298 11.3442C21.0542 11.3442 19.1274 13.271 19.1274 15.6467C19.1274 15.9839 19.1656 16.3122 19.2394 16.6273C15.6636 16.4479 12.4932 14.7351 10.371 12.1313C10.0007 12.7666 9.7883 13.5062 9.7883 14.2946C9.7883 15.7869 10.5484 17.1044 11.7023 17.8757C10.9973 17.8536 10.3334 17.6601 9.75365 17.337C9.75332 17.3553 9.75332 17.3736 9.75332 17.3916C9.75332 19.4762 11.237 21.215 13.2049 21.61C12.8442 21.7088 12.4633 21.7611 12.0716 21.7611C11.7937 21.7611 11.5245 21.7345 11.262 21.6844C11.8094 23.3933 13.398 24.6373 15.2812 24.6723C13.8084 25.8264 11.9535 26.5141 9.93718 26.5141C9.59065 26.5141 9.24732 26.4938 8.91138 26.4537C10.8144 27.6749 13.0765 28.3869 15.5061 28.3869C23.4199 28.3869 27.7477 21.831 27.7477 16.145C27.7477 15.9586 27.7435 15.7728 27.7352 15.5886C28.5765 14.9822 29.3058 14.2246 29.8824 13.3618Z" fill="#F1F2F2"/>
</g>
<defs>
<clipPath id="clip0_32_1462">
<rect width="36" height="36" fill="white" transform="translate(0.856689 0.425781)"/>
</clipPath>
</defs>
</svg>
